<?xml version="1.0" encoding="UTF-8" standalone="no"?>
<svg
   xmlns:dc="http://purl.org/dc/elements/1.1/"
   xmlns:cc="http://creativecommons.org/ns#"
   xmlns:rdf="http://www.w3.org/1999/02/22-rdf-syntax-ns#"
   xmlns:svg="http://www.w3.org/2000/svg"
   xmlns="http://www.w3.org/2000/svg"
   xmlns:sodipodi="http://sodipodi.sourceforge.net/DTD/sodipodi-0.dtd"
   xmlns:inkscape="http://www.inkscape.org/namespaces/inkscape"
   width="187.74524mm"
   height="87.473091mm"
   viewBox="0 0 187.74524 87.473091"
   version="1.1"
   id="svg8"
   inkscape:version="1.0.2 (e86c870879, 2021-01-15)"
   sodipodi:docname="capi-kubemark-arch.svg">
  <defs
     id="defs2" />
  <sodipodi:namedview
     id="base"
     pagecolor="#ffffff"
     bordercolor="#666666"
     borderopacity="1.0"
     inkscape:pageopacity="0.0"
     inkscape:pageshadow="2"
     inkscape:zoom="1.4"
     inkscape:cx="475.80908"
     inkscape:cy="54.332987"
     inkscape:document-units="mm"
     inkscape:current-layer="layer1"
     inkscape:document-rotation="0"
     showgrid="false"
     inkscape:window-width="2552"
     inkscape:window-height="1408"
     inkscape:window-x="4"
     inkscape:window-y="4"
     inkscape:window-maximized="1"
     fit-margin-top="0"
     fit-margin-left="0"
     fit-margin-right="0"
     fit-margin-bottom="0" />
  <metadata
     id="metadata5">
    <rdf:RDF>
      <cc:Work
         rdf:about="">
        <dc:format>image/svg+xml</dc:format>
        <dc:type
           rdf:resource="http://purl.org/dc/dcmitype/StillImage" />
        <dc:title></dc:title>
      </cc:Work>
    </rdf:RDF>
  </metadata>
  <g
     inkscape:label="Layer 1"
     inkscape:groupmode="layer"
     id="layer1"
     transform="translate(-7.0570142,-12.933288)">
    <path
       id="rect833"
       style="fill:#ffffff;stroke:#1b5564;stroke-width:0.765"
       d="M 11.368546,13.315788 H 190.49072 c 2.17669,0 3.92903,1.752349 3.92903,3.929033 v 72.777723 c 0,2.176684 -1.75234,3.929032 -3.92903,3.929032 H 11.368546 c -2.1766834,0 -3.9290318,-1.752348 -3.9290318,-3.929032 V 17.244821 c 0,-2.176684 1.7523484,-3.929033 3.9290318,-3.929033 z" />
    <g
       aria-label="Host Docker"
       id="text837"
       style="font-size:6.35px;line-height:1.25;font-family:'Overpass Mono';-inkscape-font-specification:'Overpass Mono';letter-spacing:0px;word-spacing:0px;fill:#4c4c4c;stroke-width:0.264583">
      <path
         d="m 12.906716,100.33018 h 0.55245 v -4.445003 h -0.55245 v 1.8796 h -2.0955 v -1.8796 h -0.55245 v 4.445003 h 0.55245 v -2.044703 h 2.0955 z"
         style="font-style:normal;font-variant:normal;font-weight:normal;font-stretch:normal;font-family:Overpass;-inkscape-font-specification:Overpass;fill:#4c4c4c;stroke-width:0.264583"
         id="path1104" />
      <path
         d="m 15.853109,100.40638 c 0.86995,0 1.4351,-0.635003 1.4351,-1.701803 0,-1.07315 -0.56515,-1.69545 -1.4351,-1.69545 -0.86995,0 -1.4351,0.635 -1.4351,1.7018 0,1.07315 0.56515,1.695453 1.4351,1.695453 z m 0,-0.514353 c -0.55245,0 -0.8763,-0.4445 -0.8763,-1.1811 0,-0.75565 0.32385,-1.1938 0.8763,-1.1938 0.55245,0 0.8763,0.45085 0.8763,1.18745 0,0.74295 -0.3302,1.18745 -0.8763,1.18745 z"
         style="font-style:normal;font-variant:normal;font-weight:normal;font-stretch:normal;font-family:Overpass;-inkscape-font-specification:Overpass;fill:#4c4c4c;stroke-width:0.264583"
         id="path1106" />
      <path
         d="m 19.11065,100.40638 c 0.70485,0 1.1557,-0.33655 1.1557,-0.920753 0,-0.61595 -0.46355,-0.86995 -1.0541,-1.0795 -0.36195,-0.14605 -0.6858,-0.2667 -0.6858,-0.53975 0,-0.2286 0.20955,-0.36195 0.53975,-0.36195 0.34925,0 0.57785,0.1651 0.71755,0.31115 l 0.381,-0.3175 c -0.23495,-0.2794 -0.5969,-0.48895 -1.0922,-0.48895 -0.6223,0 -1.0922,0.32385 -1.0922,0.85725 0,0.5334 0.4064,0.79375 1.0033,1.016 0.381,0.14605 0.74295,0.2921 0.74295,0.61595 0,0.28575 -0.26035,0.41275 -0.60325,0.41275 -0.34925,0 -0.62865,-0.20955 -0.79375,-0.38735 l -0.3937,0.33655 c 0.254,0.323853 0.6985,0.546103 1.17475,0.546103 z"
         style="font-style:normal;font-variant:normal;font-weight:normal;font-stretch:normal;font-family:Overpass;-inkscape-font-specification:Overpass;fill:#4c4c4c;stroke-width:0.264583"
         id="path1108" />
      <path
         d="m 22.006249,100.40638 c 0.254,0 0.45085,-0.0571 0.6223,-0.14605 l 0.0635,-0.539753 c -0.1397,0.0889 -0.29845,0.17145 -0.4826,0.17145 -0.28575,0 -0.33655,-0.19685 -0.33655,-0.4445 v -1.8796 h 0.8001 v -0.4826 h -0.8001 v -1.33985 l -0.55245,0.2667 v 1.07315 h -0.52705 v 0.4826 h 0.52705 v 2.06375 c 0,0.457203 0.19685,0.774703 0.6858,0.774703 z"
         style="font-style:normal;font-variant:normal;font-weight:normal;font-stretch:normal;font-family:Overpass;-inkscape-font-specification:Overpass;fill:#4c4c4c;stroke-width:0.264583"
         id="path1110" />
      <path
         d="m 25.092332,95.885177 v 4.445003 h 1.18745 c 1.6129,0 2.08915,-1.200153 2.08915,-2.222503 0,-1.09855 -0.53975,-2.2225 -2.06375,-2.2225 z m 1.2573,3.93065 h -0.70485 v -3.42265 h 0.7747 c 0.9779,0 1.37795,0.8509 1.37795,1.7145 0,0.80645 -0.3429,1.70815 -1.4478,1.70815 z"
         style="font-style:normal;font-variant:normal;font-weight:normal;font-stretch:normal;font-family:Overpass;-inkscape-font-specification:Overpass;fill:#4c4c4c;stroke-width:0.264583"
         id="path1112" />
      <path
         d="m 30.572377,100.40638 c 0.86995,0 1.4351,-0.635003 1.4351,-1.701803 0,-1.07315 -0.56515,-1.69545 -1.4351,-1.69545 -0.86995,0 -1.4351,0.635 -1.4351,1.7018 0,1.07315 0.56515,1.695453 1.4351,1.695453 z m 0,-0.514353 c -0.55245,0 -0.8763,-0.4445 -0.8763,-1.1811 0,-0.75565 0.32385,-1.1938 0.8763,-1.1938 0.55245,0 0.8763,0.45085 0.8763,1.18745 0,0.74295 -0.3302,1.18745 -0.8763,1.18745 z"
         style="font-style:normal;font-variant:normal;font-weight:normal;font-stretch:normal;font-family:Overpass;-inkscape-font-specification:Overpass;fill:#4c4c4c;stroke-width:0.264583"
         id="path1114" />
      <path
         d="m 34.026768,100.40638 c 0.5969,0 1.0287,-0.29845 1.18745,-0.831853 l -0.51435,-0.17145 c -0.09525,0.3048 -0.33655,0.4826 -0.6604,0.4826 -0.5207,0 -0.79375,-0.43815 -0.79375,-1.17475 0,-0.73025 0.26035,-1.18745 0.8128,-1.18745 0.3175,0 0.51435,0.18415 0.6096,0.4318 l 0.5207,-0.1905 c -0.18415,-0.508 -0.5969,-0.75565 -1.13665,-0.75565 -0.8509,0 -1.3716,0.635 -1.3716,1.7018 0,1.07315 0.5207,1.695453 1.3462,1.695453 z"
         style="font-style:normal;font-variant:normal;font-weight:normal;font-stretch:normal;font-family:Overpass;-inkscape-font-specification:Overpass;fill:#4c4c4c;stroke-width:0.264583"
         id="path1116" />
      <path
         d="m 38.681306,100.33018 -1.2192,-2.362203 0.8509,-0.88265 h -0.6604 l -1.0541,1.1176 v -2.45745 l -0.55245,0.26035 v 4.324353 h 0.55245 v -1.466853 l 0.47625,-0.4953 1.0033,1.962153 z"
         style="font-style:normal;font-variant:normal;font-weight:normal;font-stretch:normal;font-family:Overpass;-inkscape-font-specification:Overpass;fill:#4c4c4c;stroke-width:0.264583"
         id="path1118" />
      <path
         d="m 40.573587,100.40638 c 0.43815,0 0.80645,-0.1778 1.04775,-0.419103 l -0.33655,-0.37465 c -0.2032,0.2032 -0.45085,0.2921 -0.6985,0.2921 -0.48895,0 -0.84455,-0.38735 -0.889,-0.98425 h 2.1971 c 0.0127,-0.127 0.01905,-0.2667 0.01905,-0.3683 0,-1.0668 -0.6096,-1.54305 -1.33985,-1.54305 -0.8636,0 -1.44145,0.6223 -1.44145,1.69545 0,0.9906 0.55245,1.701803 1.44145,1.701803 z m -0.88265,-1.955803 c 0.03175,-0.66675 0.41275,-0.9525 0.88265,-0.9525 0.3429,0 0.7747,0.2159 0.78105,0.9525 z"
         style="font-style:normal;font-variant:normal;font-weight:normal;font-stretch:normal;font-family:Overpass;-inkscape-font-specification:Overpass;fill:#4c4c4c;stroke-width:0.264583"
         id="path1120" />
      <path
         d="m 42.738925,100.33018 h 0.55245 v -1.828803 c 0,-0.7366 0.41275,-0.94615 0.7239,-0.94615 0.22225,0 0.36195,0.06985 0.46355,0.1397 l 0.08255,-0.5207 c -0.1143,-0.09525 -0.2921,-0.1651 -0.50165,-0.1651 -0.36195,0 -0.6223,0.1778 -0.76835,0.50165 v -0.42545 h -0.55245 z"
         style="font-style:normal;font-variant:normal;font-weight:normal;font-stretch:normal;font-family:Overpass;-inkscape-font-specification:Overpass;fill:#4c4c4c;stroke-width:0.264583"
         id="path1122" />
    </g>
    <path
       id="rect839"
       style="fill:#ffffff;stroke:#f2b22d;stroke-width:0.926971;stroke-miterlimit:4;stroke-dasharray:none"
       d="m 19.364277,19.222134 h 51.501139 c 2.823567,0 5.096692,2.273124 5.096692,5.096692 v 51.842741 c 0,2.823567 -2.273125,5.096692 -5.096692,5.096692 H 19.364277 c -2.823568,0 -5.096692,-2.273125 -5.096692,-5.096692 V 24.318826 c 0,-2.823568 2.273124,-5.096692 5.096692,-5.096692 z" />
    <g
       aria-label="CAPI Management
Cluster"
       id="text843"
       style="font-style:normal;font-variant:normal;font-weight:bold;font-stretch:normal;font-size:6.35px;line-height:1.25;font-family:Overpass;-inkscape-font-specification:'Overpass Bold';text-align:center;letter-spacing:0px;word-spacing:0px;text-anchor:middle;stroke-width:0.264583">
      <path
         d="m 20.35308,27.288791 c 0.79375,0 1.2827,-0.42545 1.55575,-1.0414 l -0.70485,-0.2667 c -0.2032,0.33655 -0.45085,0.5715 -0.8509,0.5715 -0.7493,0 -1.07315,-0.8255 -1.07315,-1.5621 0,-0.6985 0.254,-1.56845 1.07315,-1.56845 0.4191,0 0.64135,0.1905 0.8636,0.52705 l 0.6858,-0.31115 c -0.1905,-0.4699 -0.70485,-0.94615 -1.5494,-0.94615 -1.3716,0 -1.86055,1.27635 -1.86055,2.2987 0,1.09855 0.47625,2.2987 1.86055,2.2987 z"
         style="font-style:normal;font-variant:normal;font-weight:bold;font-stretch:normal;font-family:Overpass;-inkscape-font-specification:'Overpass Bold';text-align:center;text-anchor:middle;stroke-width:0.264583"
         id="path1060" />
      <path
         d="m 25.591811,27.212591 h 0.8001 l -1.651,-4.445 h -0.75565 l -1.65735,4.445 h 0.80645 l 0.34925,-0.97155 h 1.75895 z m -0.59055,-1.65735 h -1.27635 l 0.4953,-1.3335 c 0.04445,-0.127 0.10795,-0.3175 0.14605,-0.45085 0.03175,0.13335 0.09525,0.32385 0.14605,0.45085 z"
         style="font-style:normal;font-variant:normal;font-weight:bold;font-stretch:normal;font-family:Overpass;-inkscape-font-specification:'Overpass Bold';text-align:center;text-anchor:middle;stroke-width:0.264583"
         id="path1062" />
      <path
         d="m 27.071345,27.212591 h 0.762 v -1.68275 h 1.08585 c 1.0668,0 1.49225,-0.7493 1.49225,-1.3843 0,-0.67945 -0.38735,-1.37795 -1.49225,-1.37795 h -1.84785 z m 1.88595,-2.40665 h -1.12395 v -1.31445 h 1.12395 c 0.5207,0 0.66675,0.37465 0.66675,0.65405 0,0.31115 -0.1778,0.6604 -0.66675,0.6604 z"
         style="font-style:normal;font-variant:normal;font-weight:bold;font-stretch:normal;font-family:Overpass;-inkscape-font-specification:'Overpass Bold';text-align:center;text-anchor:middle;stroke-width:0.264583"
         id="path1064" />
      <path
         d="m 31.141693,27.212591 h 0.762 v -4.445 h -0.762 z"
         style="font-style:normal;font-variant:normal;font-weight:bold;font-stretch:normal;font-family:Overpass;-inkscape-font-specification:'Overpass Bold';text-align:center;text-anchor:middle;stroke-width:0.264583"
         id="path1066" />
      <path
         d="m 38.615631,27.212591 v -4.445 h -0.74295 l -1.14935,2.60985 c -0.04445,0.10795 -0.0889,0.2286 -0.12065,0.3302 -0.03175,-0.1016 -0.0762,-0.22225 -0.12065,-0.3302 l -1.143,-2.60985 h -0.76835 v 4.445 h 0.762 v -2.3622 c 0,-0.15875 -0.0127,-0.41275 -0.0254,-0.5334 0.05715,0.17145 0.1397,0.381 0.20955,0.5334 l 1.0795,2.4384 1.0795,-2.4257 c 0.0635,-0.15875 0.14605,-0.37465 0.2032,-0.5461 -0.0127,0.12065 -0.0254,0.37465 -0.0254,0.5334 v 2.3622 z"
         style="font-style:normal;font-variant:normal;font-weight:bold;font-stretch:normal;font-family:Overpass;-inkscape-font-specification:'Overpass Bold';text-align:center;text-anchor:middle;stroke-width:0.264583"
         id="path1068" />
      <path
         d="m 41.479476,27.212591 h 0.7239 v -2.08915 c 0,-1.0922 -0.7112,-1.2319 -1.2827,-1.2319 -0.5461,0 -0.9779,0.15875 -1.27,0.3556 l 0.2286,0.60325 c 0.27305,-0.1905 0.5715,-0.3048 0.9652,-0.3048 0.42545,0 0.635,0.1651 0.635,0.59055 v 0.17145 c -0.2032,-0.1143 -0.46355,-0.17145 -0.76835,-0.17145 -0.64135,0 -1.27,0.32385 -1.27,1.07315 0,0.7112 0.508,1.0795 1.17475,1.0795 0.4318,0 0.70485,-0.17145 0.8636,-0.33655 z m -0.7239,-0.57785 c -0.38735,0 -0.59055,-0.17145 -0.59055,-0.42545 0,-0.31115 0.29845,-0.43815 0.66675,-0.43815 0.2413,0 0.47625,0.0508 0.6477,0.13335 v 0.4191 c -0.1651,0.17145 -0.4064,0.31115 -0.7239,0.31115 z"
         style="font-style:normal;font-variant:normal;font-weight:bold;font-stretch:normal;font-family:Overpass;-inkscape-font-specification:'Overpass Bold';text-align:center;text-anchor:middle;stroke-width:0.264583"
         id="path1070" />
      <path
         d="m 45.098965,27.212591 h 0.74295 v -1.9939 c 0,-0.9906 -0.5334,-1.32715 -1.14935,-1.32715 -0.3683,0 -0.6477,0.127 -0.85725,0.381 v -0.3048 h -0.74295 v 3.24485 h 0.74295 v -1.87325 c 0,-0.5334 0.26035,-0.74295 0.6604,-0.74295 0.37465,0 0.60325,0.22225 0.60325,0.75565 z"
         style="font-style:normal;font-variant:normal;font-weight:bold;font-stretch:normal;font-family:Overpass;-inkscape-font-specification:'Overpass Bold';text-align:center;text-anchor:middle;stroke-width:0.264583"
         id="path1072" />
      <path
         d="m 48.610509,27.212591 h 0.7239 v -2.08915 c 0,-1.0922 -0.7112,-1.2319 -1.2827,-1.2319 -0.5461,0 -0.9779,0.15875 -1.27,0.3556 l 0.2286,0.60325 c 0.27305,-0.1905 0.5715,-0.3048 0.9652,-0.3048 0.42545,0 0.635,0.1651 0.635,0.59055 v 0.17145 c -0.2032,-0.1143 -0.46355,-0.17145 -0.76835,-0.17145 -0.64135,0 -1.27,0.32385 -1.27,1.07315 0,0.7112 0.508,1.0795 1.17475,1.0795 0.4318,0 0.70485,-0.17145 0.8636,-0.33655 z m -0.7239,-0.57785 c -0.38735,0 -0.59055,-0.17145 -0.59055,-0.42545 0,-0.31115 0.29845,-0.43815 0.66675,-0.43815 0.2413,0 0.47625,0.0508 0.6477,0.13335 v 0.4191 c -0.1651,0.17145 -0.4064,0.31115 -0.7239,0.31115 z"
         style="font-style:normal;font-variant:normal;font-weight:bold;font-stretch:normal;font-family:Overpass;-inkscape-font-specification:'Overpass Bold';text-align:center;text-anchor:middle;stroke-width:0.264583"
         id="path1074" />
      <path
         d="m 51.353696,28.482591 c 1.1176,-0.08255 1.53035,-0.5207 1.53035,-1.59385 v -2.921 h -0.74295 v 0.19685 c -0.1524,-0.1524 -0.3937,-0.27305 -0.73025,-0.27305 -0.79375,0 -1.3462,0.635 -1.3462,1.69545 0,1.1303 0.57785,1.7018 1.33985,1.7018 0.2921,0 0.5461,-0.08255 0.7366,-0.2921 v 0.18415 c 0,0.43815 -0.2667,0.64135 -1.1811,0.70485 z m 0.1778,-1.905 c -0.46355,0 -0.7239,-0.3937 -0.7239,-0.9906 0,-0.64135 0.26035,-0.9906 0.7239,-0.9906 0.28575,0 0.4953,0.1524 0.6096,0.3175 v 1.3462 c -0.13335,0.2032 -0.3429,0.3175 -0.6096,0.3175 z"
         style="font-style:normal;font-variant:normal;font-weight:bold;font-stretch:normal;font-family:Overpass;-inkscape-font-specification:'Overpass Bold';text-align:center;text-anchor:middle;stroke-width:0.264583"
         id="path1076" />
      <path
         d="m 55.176386,27.288791 c 0.5207,0 0.9017,-0.2032 1.1557,-0.508 l -0.4699,-0.4826 c -0.17145,0.2286 -0.40005,0.33655 -0.6858,0.33655 -0.38735,0 -0.7366,-0.28575 -0.762,-0.762 h 2.15265 c 0.01905,-0.14605 0.0254,-0.32385 0.0254,-0.4572 0,-1.0414 -0.635,-1.524 -1.41605,-1.524 -0.90805,0 -1.4986,0.635 -1.4986,1.69545 0,1.0668 0.57785,1.7018 1.4986,1.7018 z m -0.75565,-2.032 c 0.0381,-0.508 0.3556,-0.7112 0.75565,-0.7112 0.33655,0 0.6477,0.2159 0.67945,0.7112 z"
         style="font-style:normal;font-variant:normal;font-weight:bold;font-stretch:normal;font-family:Overpass;-inkscape-font-specification:'Overpass Bold';text-align:center;text-anchor:middle;stroke-width:0.264583"
         id="path1078" />
      <path
         d="m 61.164431,27.212591 h 0.74295 v -2.0701 c 0,-0.9144 -0.51435,-1.25095 -1.18745,-1.25095 -0.4191,0 -0.762,0.1397 -0.9779,0.4572 -0.17145,-0.31115 -0.46355,-0.4572 -0.8509,-0.4572 -0.33655,0 -0.6096,0.127 -0.79375,0.37465 v -0.29845 h -0.74295 v 3.24485 h 0.74295 v -1.84785 c 0,-0.5207 0.2413,-0.76835 0.6096,-0.76835 0.381,0 0.55245,0.24765 0.55245,0.75565 v 1.86055 h 0.74295 v -1.84785 c 0,-0.5207 0.23495,-0.76835 0.6096,-0.76835 0.381,0 0.55245,0.24765 0.55245,0.75565 z"
         style="font-style:normal;font-variant:normal;font-weight:bold;font-stretch:normal;font-family:Overpass;-inkscape-font-specification:'Overpass Bold';text-align:center;text-anchor:middle;stroke-width:0.264583"
         id="path1080" />
      <path
         d="m 64.167975,27.288791 c 0.5207,0 0.9017,-0.2032 1.1557,-0.508 l -0.4699,-0.4826 c -0.17145,0.2286 -0.40005,0.33655 -0.6858,0.33655 -0.38735,0 -0.7366,-0.28575 -0.762,-0.762 h 2.15265 c 0.01905,-0.14605 0.0254,-0.32385 0.0254,-0.4572 0,-1.0414 -0.635,-1.524 -1.41605,-1.524 -0.90805,0 -1.4986,0.635 -1.4986,1.69545 0,1.0668 0.57785,1.7018 1.4986,1.7018 z m -0.75565,-2.032 c 0.0381,-0.508 0.3556,-0.7112 0.75565,-0.7112 0.33655,0 0.6477,0.2159 0.67945,0.7112 z"
         style="font-style:normal;font-variant:normal;font-weight:bold;font-stretch:normal;font-family:Overpass;-inkscape-font-specification:'Overpass Bold';text-align:center;text-anchor:middle;stroke-width:0.264583"
         id="path1082" />
      <path
         d="m 68.35262,27.212591 h 0.74295 v -1.9939 c 0,-0.9906 -0.5334,-1.32715 -1.14935,-1.32715 -0.3683,0 -0.6477,0.127 -0.85725,0.381 v -0.3048 h -0.74295 v 3.24485 h 0.74295 v -1.87325 c 0,-0.5334 0.26035,-0.74295 0.6604,-0.74295 0.37465,0 0.60325,0.22225 0.60325,0.75565 z"
         style="font-style:normal;font-variant:normal;font-weight:bold;font-stretch:normal;font-family:Overpass;-inkscape-font-specification:'Overpass Bold';text-align:center;text-anchor:middle;stroke-width:0.264583"
         id="path1084" />
      <path
         d="m 70.968815,27.288791 c 0.2667,0 0.4953,-0.0508 0.67945,-0.14605 l 0.0889,-0.66675 c -0.17145,0.09525 -0.3429,0.14605 -0.508,0.14605 -0.19685,0 -0.27305,-0.127 -0.27305,-0.31115 v -1.69545 h 0.7493 v -0.6477 h -0.7493 v -1.33985 l -0.74295,0.3556 v 0.98425 h -0.4826 v 0.6477 h 0.4826 v 1.8415 c 0,0.51435 0.22225,0.83185 0.75565,0.83185 z"
         style="font-style:normal;font-variant:normal;font-weight:bold;font-stretch:normal;font-family:Overpass;-inkscape-font-specification:'Overpass Bold';text-align:center;text-anchor:middle;stroke-width:0.264583"
         id="path1086" />
      <path
         d="m 36.751927,35.226291 c 0.79375,0 1.2827,-0.42545 1.55575,-1.0414 l -0.70485,-0.2667 c -0.2032,0.33655 -0.45085,0.5715 -0.8509,0.5715 -0.7493,0 -1.07315,-0.8255 -1.07315,-1.5621 0,-0.6985 0.254,-1.56845 1.07315,-1.56845 0.4191,0 0.64135,0.1905 0.8636,0.52705 l 0.6858,-0.31115 c -0.1905,-0.4699 -0.70485,-0.94615 -1.5494,-0.94615 -1.3716,0 -1.86055,1.27635 -1.86055,2.2987 0,1.09855 0.47625,2.2987 1.86055,2.2987 z"
         style="font-style:normal;font-variant:normal;font-weight:bold;font-stretch:normal;font-family:Overpass;-inkscape-font-specification:'Overpass Bold';text-align:center;text-anchor:middle;stroke-width:0.264583"
         id="path1088" />
      <path
         d="m 39.114118,35.150091 h 0.74295 v -4.5847 l -0.74295,0.34925 z"
         style="font-style:normal;font-variant:normal;font-weight:bold;font-stretch:normal;font-family:Overpass;-inkscape-font-specification:'Overpass Bold';text-align:center;text-anchor:middle;stroke-width:0.264583"
         id="path1090" />
      <path
         d="m 42.816159,35.150091 h 0.74295 v -3.24485 h -0.74295 v 1.8669 c 0,0.53975 -0.26035,0.74295 -0.65405,0.74295 -0.381,0 -0.6096,-0.22225 -0.6096,-0.75565 v -1.8542 h -0.74295 v 1.98755 c 0,0.9906 0.53975,1.3335 1.1557,1.3335 0.36195,0 0.6477,-0.127 0.8509,-0.38735 z"
         style="font-style:normal;font-variant:normal;font-weight:bold;font-stretch:normal;font-family:Overpass;-inkscape-font-specification:'Overpass Bold';text-align:center;text-anchor:middle;stroke-width:0.264583"
         id="path1092" />
      <path
         d="m 45.553003,35.226291 c 0.7493,0 1.2446,-0.33655 1.2446,-0.9652 0,-0.61595 -0.43815,-0.88265 -1.0668,-1.0922 -0.3429,-0.1143 -0.635,-0.2286 -0.635,-0.42545 0,-0.17145 0.17145,-0.2667 0.43815,-0.2667 0.29845,0 0.48895,0.12065 0.6477,0.27305 l 0.51435,-0.4191 c -0.22225,-0.26035 -0.60325,-0.50165 -1.16205,-0.50165 -0.64135,0 -1.1557,0.3175 -1.1557,0.9017 0,0.5461 0.3683,0.81915 1.07315,1.0541 0.3683,0.14605 0.62865,0.24765 0.62865,0.47625 0,0.23495 -0.22225,0.3175 -0.52705,0.3175 -0.3556,0 -0.6223,-0.20955 -0.75565,-0.3429 l -0.508,0.4318 c 0.2413,0.3429 0.74295,0.5588 1.26365,0.5588 z"
         style="font-style:normal;font-variant:normal;font-weight:bold;font-stretch:normal;font-family:Overpass;-inkscape-font-specification:'Overpass Bold';text-align:center;text-anchor:middle;stroke-width:0.264583"
         id="path1094" />
      <path
         d="m 48.512088,35.226291 c 0.2667,0 0.4953,-0.0508 0.67945,-0.14605 l 0.0889,-0.66675 c -0.17145,0.09525 -0.3429,0.14605 -0.508,0.14605 -0.19685,0 -0.27305,-0.127 -0.27305,-0.31115 v -1.69545 h 0.7493 v -0.6477 h -0.7493 v -1.33985 l -0.74295,0.3556 v 0.98425 h -0.4826 v 0.6477 h 0.4826 v 1.8415 c 0,0.51435 0.22225,0.83185 0.75565,0.83185 z"
         style="font-style:normal;font-variant:normal;font-weight:bold;font-stretch:normal;font-family:Overpass;-inkscape-font-specification:'Overpass Bold';text-align:center;text-anchor:middle;stroke-width:0.264583"
         id="path1096" />
      <path
         d="m 51.299728,35.226291 c 0.5207,0 0.9017,-0.2032 1.1557,-0.508 l -0.4699,-0.4826 c -0.17145,0.2286 -0.40005,0.33655 -0.6858,0.33655 -0.38735,0 -0.7366,-0.28575 -0.762,-0.762 h 2.15265 c 0.01905,-0.14605 0.0254,-0.32385 0.0254,-0.4572 0,-1.0414 -0.635,-1.524 -1.41605,-1.524 -0.90805,0 -1.4986,0.635 -1.4986,1.69545 0,1.0668 0.57785,1.7018 1.4986,1.7018 z m -0.75565,-2.032 c 0.0381,-0.508 0.3556,-0.7112 0.75565,-0.7112 0.33655,0 0.6477,0.2159 0.67945,0.7112 z"
         style="font-style:normal;font-variant:normal;font-weight:bold;font-stretch:normal;font-family:Overpass;-inkscape-font-specification:'Overpass Bold';text-align:center;text-anchor:middle;stroke-width:0.264583"
         id="path1098" />
      <path
         d="m 53.477771,35.150091 h 0.74295 v -1.8161 c 0,-0.61595 0.32385,-0.7747 0.6096,-0.7747 0.24765,0 0.4191,0.0762 0.55245,0.17145 l 0.10795,-0.67945 c -0.1651,-0.1397 -0.36195,-0.22225 -0.60325,-0.22225 -0.32385,0 -0.53975,0.14605 -0.66675,0.41275 v -0.33655 h -0.74295 z"
         style="font-style:normal;font-variant:normal;font-weight:bold;font-stretch:normal;font-family:Overpass;-inkscape-font-specification:'Overpass Bold';text-align:center;text-anchor:middle;stroke-width:0.264583"
         id="path1100" />
    </g>
    <g
       aria-label="Container"
       id="text837-1"
       style="font-size:6.35px;line-height:1.25;font-family:'Overpass Mono';-inkscape-font-specification:'Overpass Mono';letter-spacing:0px;word-spacing:0px;fill:#4c4c4c;stroke-width:0.264583">
      <path
         d="m 19.125109,87.726499 c 0.78105,0 1.244599,-0.40005 1.473199,-0.89535 l -0.508,-0.1905 c -0.203199,0.33655 -0.476249,0.56515 -0.965199,0.56515 -0.889,0 -1.27,-0.89535 -1.27,-1.778 0,-0.8128 0.3175,-1.78435 1.27,-1.78435 0.48895,0 0.73025,0.2286 0.939799,0.53975 l 0.4953,-0.254 c -0.19685,-0.40005 -0.615949,-0.8001 -1.435099,-0.8001 -1.3208,0 -1.8415,1.1811 -1.8415,2.2987 0,1.1303 0.4953,2.2987 1.8415,2.2987 z"
         style="font-style:normal;font-variant:normal;font-weight:normal;font-stretch:normal;font-family:Overpass;-inkscape-font-specification:Overpass;fill:#4c4c4c;stroke-width:0.264583"
         id="path1041" />
      <path
         d="m 22.731904,87.726499 c 0.86995,0 1.4351,-0.635 1.4351,-1.7018 0,-1.07315 -0.56515,-1.69545 -1.4351,-1.69545 -0.86995,0 -1.4351,0.635 -1.4351,1.7018 0,1.07315 0.56515,1.69545 1.4351,1.69545 z m 0,-0.51435 c -0.55245,0 -0.8763,-0.4445 -0.8763,-1.1811 0,-0.75565 0.32385,-1.1938 0.8763,-1.1938 0.55245,0 0.8763,0.45085 0.8763,1.18745 0,0.74295 -0.3302,1.18745 -0.8763,1.18745 z"
         style="font-style:normal;font-variant:normal;font-weight:normal;font-stretch:normal;font-family:Overpass;-inkscape-font-specification:Overpass;fill:#4c4c4c;stroke-width:0.264583"
         id="path1043" />
      <path
         d="m 27.030846,87.650299 h 0.55245 v -1.8669 c 0,-1.04775 -0.42545,-1.45415 -1.16205,-1.45415 -0.34925,0 -0.635,0.127 -0.8382,0.4064 v -0.3302 h -0.55245 v 3.24485 h 0.55245 v -1.97485 c 0,-0.62865 0.32385,-0.8382 0.7493,-0.8382 0.40005,0 0.6985,0.23495 0.6985,0.8509 z"
         style="font-style:normal;font-variant:normal;font-weight:normal;font-stretch:normal;font-family:Overpass;-inkscape-font-specification:Overpass;fill:#4c4c4c;stroke-width:0.264583"
         id="path1045" />
      <path
         d="m 29.481944,87.726499 c 0.254,0 0.45085,-0.05715 0.6223,-0.14605 l 0.0635,-0.53975 c -0.1397,0.0889 -0.29845,0.17145 -0.4826,0.17145 -0.28575,0 -0.33655,-0.19685 -0.33655,-0.4445 v -1.8796 h 0.8001 v -0.4826 h -0.8001 v -1.33985 l -0.55245,0.2667 v 1.07315 h -0.52705 v 0.4826 h 0.52705 v 2.06375 c 0,0.4572 0.19685,0.7747 0.6858,0.7747 z"
         style="font-style:normal;font-variant:normal;font-weight:normal;font-stretch:normal;font-family:Overpass;-inkscape-font-specification:Overpass;fill:#4c4c4c;stroke-width:0.264583"
         id="path1047" />
      <path
         d="m 32.777584,87.650299 h 0.5207 v -2.15265 c 0,-0.99695 -0.6477,-1.1684 -1.1557,-1.1684 -0.48895,0 -0.9144,0.17145 -1.17475,0.3429 l 0.15875,0.46355 c 0.2413,-0.17145 0.5842,-0.32385 0.94615,-0.32385 0.4191,0 0.70485,0.15875 0.70485,0.73025 v 0.2286 c -0.2667,-0.1524 -0.55245,-0.20955 -0.8382,-0.20955 -0.62865,0 -1.21285,0.32385 -1.21285,1.07315 0,0.7239 0.4699,1.0922 1.1303,1.0922 0.38735,0 0.70485,-0.17145 0.92075,-0.37465 z m -0.8382,-0.41275 c -0.4445,0 -0.69215,-0.2413 -0.69215,-0.60325 0,-0.41275 0.34925,-0.5969 0.76835,-0.5969 0.2667,0 0.56515,0.09525 0.762,0.2159 v 0.5588 c -0.18415,0.2159 -0.47625,0.42545 -0.8382,0.42545 z"
         style="font-style:normal;font-variant:normal;font-weight:normal;font-stretch:normal;font-family:Overpass;-inkscape-font-specification:Overpass;fill:#4c4c4c;stroke-width:0.264583"
         id="path1049" />
      <path
         d="m 34.536528,83.814899 c 0.19685,0 0.34925,-0.1524 0.34925,-0.3429 0,-0.19685 -0.1524,-0.3556 -0.34925,-0.3556 -0.1905,0 -0.3429,0.15875 -0.3429,0.3556 0,0.1905 0.1524,0.3429 0.3429,0.3429 z m -0.27305,3.8354 h 0.55245 v -3.24485 h -0.55245 z"
         style="font-style:normal;font-variant:normal;font-weight:normal;font-stretch:normal;font-family:Overpass;-inkscape-font-specification:Overpass;fill:#4c4c4c;stroke-width:0.264583"
         id="path1051" />
      <path
         d="m 37.870276,87.650299 h 0.55245 v -1.8669 c 0,-1.04775 -0.42545,-1.45415 -1.16205,-1.45415 -0.34925,0 -0.635,0.127 -0.8382,0.4064 v -0.3302 h -0.55245 v 3.24485 h 0.55245 v -1.97485 c 0,-0.62865 0.32385,-0.8382 0.7493,-0.8382 0.40005,0 0.6985,0.23495 0.6985,0.8509 z"
         style="font-style:normal;font-variant:normal;font-weight:normal;font-stretch:normal;font-family:Overpass;-inkscape-font-specification:Overpass;fill:#4c4c4c;stroke-width:0.264583"
         id="path1053" />
      <path
         d="m 40.696024,87.726499 c 0.43815,0 0.80645,-0.1778 1.04775,-0.4191 l -0.33655,-0.37465 c -0.2032,0.2032 -0.45085,0.2921 -0.6985,0.2921 -0.48895,0 -0.84455,-0.38735 -0.889,-0.98425 h 2.1971 c 0.0127,-0.127 0.01905,-0.2667 0.01905,-0.3683 0,-1.0668 -0.6096,-1.54305 -1.33985,-1.54305 -0.8636,0 -1.44145,0.6223 -1.44145,1.69545 0,0.9906 0.55245,1.7018 1.44145,1.7018 z m -0.88265,-1.9558 c 0.03175,-0.66675 0.41275,-0.9525 0.88265,-0.9525 0.3429,0 0.7747,0.2159 0.78105,0.9525 z"
         style="font-style:normal;font-variant:normal;font-weight:normal;font-stretch:normal;font-family:Overpass;-inkscape-font-specification:Overpass;fill:#4c4c4c;stroke-width:0.264583"
         id="path1055" />
      <path
         d="m 42.861362,87.650299 h 0.55245 v -1.8288 c 0,-0.7366 0.41275,-0.94615 0.7239,-0.94615 0.22225,0 0.36195,0.06985 0.46355,0.1397 l 0.08255,-0.5207 c -0.1143,-0.09525 -0.2921,-0.1651 -0.50165,-0.1651 -0.36195,0 -0.6223,0.1778 -0.76835,0.50165 v -0.42545 h -0.55245 z"
         style="font-style:normal;font-variant:normal;font-weight:normal;font-stretch:normal;font-family:Overpass;-inkscape-font-specification:Overpass;fill:#4c4c4c;stroke-width:0.264583"
         id="path1057" />
    </g>
    <path
       id="rect839-9"
       style="fill:#ffffff;stroke:#f2b22d;stroke-width:0.806375"
       d="m 129.06092,18.923912 h 52.60012 c 2.1722,0 3.92093,1.748733 3.92093,3.920927 v 12.163306 c 0,2.172193 -1.74873,3.920926 -3.92093,3.920926 h -52.60012 c -2.17219,0 -3.92093,-1.748733 -3.92093,-3.920926 V 22.844839 c 0,-2.172194 1.74874,-3.920927 3.92093,-3.920927 z" />
    <g
       aria-label="Kubemark Cluster
Control Plane"
       id="text843-6"
       style="font-style:normal;font-variant:normal;font-weight:bold;font-stretch:normal;font-size:6.35px;line-height:1.25;font-family:Overpass;-inkscape-font-specification:'Overpass Bold';text-align:center;letter-spacing:0px;word-spacing:0px;text-anchor:middle;stroke-width:0.264583">
      <path
         d="m 132.03837,27.224676 h 0.889 l -1.5748,-2.8702 1.27,-1.5748 h -0.889 l -1.69545,2.1336 v -2.1336 h -0.762 v 4.445 h 0.762 v -1.2446 l 0.80645,-0.98425 z"
         style="font-style:normal;font-variant:normal;font-weight:bold;font-stretch:normal;font-family:Overpass;-inkscape-font-specification:'Overpass Bold';text-align:center;text-anchor:middle;stroke-width:0.264583"
         id="path985" />
      <path
         d="m 135.53721,27.224676 h 0.74295 v -3.24485 h -0.74295 v 1.8669 c 0,0.53975 -0.26035,0.74295 -0.65405,0.74295 -0.381,0 -0.6096,-0.22225 -0.6096,-0.75565 v -1.8542 h -0.74295 v 1.98755 c 0,0.9906 0.53975,1.3335 1.1557,1.3335 0.36195,0 0.6477,-0.127 0.8509,-0.38735 z"
         style="font-style:normal;font-variant:normal;font-weight:bold;font-stretch:normal;font-family:Overpass;-inkscape-font-specification:'Overpass Bold';text-align:center;text-anchor:middle;stroke-width:0.264583"
         id="path987" />
      <path
         d="m 138.69316,27.300876 c 0.8382,0 1.3589,-0.60325 1.3589,-1.7018 0,-1.06045 -0.5588,-1.69545 -1.3462,-1.69545 -0.33655,0 -0.5715,0.13335 -0.73025,0.3175 v -1.58115 l -0.74295,0.33655 v 4.24815 h 0.74295 v -0.24765 c 0.15875,0.19685 0.37465,0.32385 0.71755,0.32385 z m -0.0889,-0.7112 c -0.28575,0 -0.4953,-0.10795 -0.62865,-0.31115 v -1.35255 c 0.0953,-0.14605 0.3175,-0.3175 0.62865,-0.3175 0.45085,0 0.70485,0.34925 0.70485,0.9906 0,0.6096 -0.2413,0.9906 -0.70485,0.9906 z"
         style="font-style:normal;font-variant:normal;font-weight:bold;font-stretch:normal;font-family:Overpass;-inkscape-font-specification:'Overpass Bold';text-align:center;text-anchor:middle;stroke-width:0.264583"
         id="path989" />
      <path
         d="m 142.18565,27.300876 c 0.5207,0 0.9017,-0.2032 1.1557,-0.508 l -0.4699,-0.4826 c -0.17145,0.2286 -0.40005,0.33655 -0.6858,0.33655 -0.38735,0 -0.7366,-0.28575 -0.762,-0.762 h 2.15265 c 0.019,-0.14605 0.0254,-0.32385 0.0254,-0.4572 0,-1.0414 -0.635,-1.524 -1.41605,-1.524 -0.90805,0 -1.4986,0.635 -1.4986,1.69545 0,1.0668 0.57785,1.7018 1.4986,1.7018 z m -0.75565,-2.032 c 0.0381,-0.508 0.3556,-0.7112 0.75565,-0.7112 0.33655,0 0.6477,0.2159 0.67945,0.7112 z"
         style="font-style:normal;font-variant:normal;font-weight:bold;font-stretch:normal;font-family:Overpass;-inkscape-font-specification:'Overpass Bold';text-align:center;text-anchor:middle;stroke-width:0.264583"
         id="path991" />
      <path
         d="m 148.17369,27.224676 h 0.74295 v -2.0701 c 0,-0.9144 -0.51435,-1.25095 -1.18745,-1.25095 -0.4191,0 -0.762,0.1397 -0.9779,0.4572 -0.17145,-0.31115 -0.46355,-0.4572 -0.8509,-0.4572 -0.33655,0 -0.6096,0.127 -0.79375,0.37465 v -0.29845 h -0.74295 v 3.24485 h 0.74295 v -1.84785 c 0,-0.5207 0.2413,-0.76835 0.6096,-0.76835 0.381,0 0.55245,0.24765 0.55245,0.75565 v 1.86055 h 0.74295 v -1.84785 c 0,-0.5207 0.23495,-0.76835 0.6096,-0.76835 0.381,0 0.55245,0.24765 0.55245,0.75565 z"
         style="font-style:normal;font-variant:normal;font-weight:bold;font-stretch:normal;font-family:Overpass;-inkscape-font-specification:'Overpass Bold';text-align:center;text-anchor:middle;stroke-width:0.264583"
         id="path993" />
      <path
         d="m 151.68524,27.224676 h 0.7239 v -2.08915 c 0,-1.0922 -0.7112,-1.2319 -1.2827,-1.2319 -0.5461,0 -0.9779,0.15875 -1.27,0.3556 l 0.2286,0.60325 c 0.27305,-0.1905 0.5715,-0.3048 0.9652,-0.3048 0.42545,0 0.635,0.1651 0.635,0.59055 v 0.17145 c -0.2032,-0.1143 -0.46355,-0.17145 -0.76835,-0.17145 -0.64135,0 -1.27,0.32385 -1.27,1.07315 0,0.7112 0.508,1.0795 1.17475,1.0795 0.4318,0 0.70485,-0.17145 0.8636,-0.33655 z m -0.7239,-0.57785 c -0.38735,0 -0.59055,-0.17145 -0.59055,-0.42545 0,-0.31115 0.29845,-0.43815 0.66675,-0.43815 0.2413,0 0.47625,0.0508 0.6477,0.13335 v 0.4191 c -0.1651,0.17145 -0.4064,0.31115 -0.7239,0.31115 z"
         style="font-style:normal;font-variant:normal;font-weight:bold;font-stretch:normal;font-family:Overpass;-inkscape-font-specification:'Overpass Bold';text-align:center;text-anchor:middle;stroke-width:0.264583"
         id="path995" />
      <path
         d="m 153.29812,27.224676 h 0.74295 v -1.8161 c 0,-0.61595 0.32385,-0.7747 0.6096,-0.7747 0.24765,0 0.4191,0.0762 0.55245,0.17145 l 0.10795,-0.67945 c -0.1651,-0.1397 -0.36195,-0.22225 -0.60325,-0.22225 -0.32385,0 -0.53975,0.14605 -0.66675,0.41275 v -0.33655 h -0.74295 z"
         style="font-style:normal;font-variant:normal;font-weight:bold;font-stretch:normal;font-family:Overpass;-inkscape-font-specification:'Overpass Bold';text-align:center;text-anchor:middle;stroke-width:0.264583"
         id="path997" />
      <path
         d="m 158.70196,27.224676 -1.2065,-2.3241 0.92075,-0.92075 h -0.9017 l -0.9144,0.9398 v -2.27965 l -0.74295,0.34925 v 4.23545 h 0.74295 v -1.4351 l 0.36195,-0.3556 0.9271,1.7907 z"
         style="font-style:normal;font-variant:normal;font-weight:bold;font-stretch:normal;font-family:Overpass;-inkscape-font-specification:'Overpass Bold';text-align:center;text-anchor:middle;stroke-width:0.264583"
         id="path999" />
      <path
         d="m 162.7215,27.300876 c 0.79375,0 1.2827,-0.42545 1.55575,-1.0414 l -0.70485,-0.2667 c -0.2032,0.33655 -0.45085,0.5715 -0.8509,0.5715 -0.7493,0 -1.07315,-0.8255 -1.07315,-1.5621 0,-0.6985 0.254,-1.56845 1.07315,-1.56845 0.4191,0 0.64135,0.1905 0.8636,0.52705 l 0.6858,-0.31115 c -0.1905,-0.4699 -0.70485,-0.94615 -1.5494,-0.94615 -1.3716,0 -1.86055,1.27635 -1.86055,2.2987 0,1.09855 0.47625,2.2987 1.86055,2.2987 z"
         style="font-style:normal;font-variant:normal;font-weight:bold;font-stretch:normal;font-family:Overpass;-inkscape-font-specification:'Overpass Bold';text-align:center;text-anchor:middle;stroke-width:0.264583"
         id="path1001" />
      <path
         d="m 165.08369,27.224676 h 0.74295 v -4.5847 l -0.74295,0.34925 z"
         style="font-style:normal;font-variant:normal;font-weight:bold;font-stretch:normal;font-family:Overpass;-inkscape-font-specification:'Overpass Bold';text-align:center;text-anchor:middle;stroke-width:0.264583"
         id="path1003" />
      <path
         d="m 168.78573,27.224676 h 0.74295 v -3.24485 h -0.74295 v 1.8669 c 0,0.53975 -0.26035,0.74295 -0.65405,0.74295 -0.381,0 -0.6096,-0.22225 -0.6096,-0.75565 v -1.8542 h -0.74295 v 1.98755 c 0,0.9906 0.53975,1.3335 1.1557,1.3335 0.36195,0 0.6477,-0.127 0.8509,-0.38735 z"
         style="font-style:normal;font-variant:normal;font-weight:bold;font-stretch:normal;font-family:Overpass;-inkscape-font-specification:'Overpass Bold';text-align:center;text-anchor:middle;stroke-width:0.264583"
         id="path1005" />
      <path
         d="m 171.52257,27.300876 c 0.7493,0 1.2446,-0.33655 1.2446,-0.9652 0,-0.61595 -0.43815,-0.88265 -1.0668,-1.0922 -0.3429,-0.1143 -0.635,-0.2286 -0.635,-0.42545 0,-0.17145 0.17145,-0.2667 0.43815,-0.2667 0.29845,0 0.48895,0.12065 0.6477,0.27305 l 0.51435,-0.4191 c -0.22225,-0.26035 -0.60325,-0.50165 -1.16205,-0.50165 -0.64135,0 -1.1557,0.3175 -1.1557,0.9017 0,0.5461 0.3683,0.81915 1.07315,1.0541 0.3683,0.14605 0.62865,0.24765 0.62865,0.47625 0,0.23495 -0.22225,0.3175 -0.52705,0.3175 -0.3556,0 -0.6223,-0.20955 -0.75565,-0.3429 l -0.508,0.4318 c 0.2413,0.3429 0.74295,0.5588 1.26365,0.5588 z"
         style="font-style:normal;font-variant:normal;font-weight:bold;font-stretch:normal;font-family:Overpass;-inkscape-font-specification:'Overpass Bold';text-align:center;text-anchor:middle;stroke-width:0.264583"
         id="path1007" />
      <path
         d="m 174.48166,27.300876 c 0.2667,0 0.4953,-0.0508 0.67945,-0.14605 l 0.0889,-0.66675 c -0.17145,0.09525 -0.3429,0.14605 -0.508,0.14605 -0.19685,0 -0.27305,-0.127 -0.27305,-0.31115 v -1.69545 h 0.7493 v -0.6477 h -0.7493 v -1.33985 l -0.74295,0.3556 v 0.98425 h -0.4826 v 0.6477 h 0.4826 v 1.8415 c 0,0.51435 0.22225,0.83185 0.75565,0.83185 z"
         style="font-style:normal;font-variant:normal;font-weight:bold;font-stretch:normal;font-family:Overpass;-inkscape-font-specification:'Overpass Bold';text-align:center;text-anchor:middle;stroke-width:0.264583"
         id="path1009" />
      <path
         d="m 177.2693,27.300876 c 0.5207,0 0.9017,-0.2032 1.1557,-0.508 l -0.4699,-0.4826 c -0.17145,0.2286 -0.40005,0.33655 -0.6858,0.33655 -0.38735,0 -0.7366,-0.28575 -0.762,-0.762 h 2.15265 c 0.019,-0.14605 0.0254,-0.32385 0.0254,-0.4572 0,-1.0414 -0.635,-1.524 -1.41605,-1.524 -0.90805,0 -1.4986,0.635 -1.4986,1.69545 0,1.0668 0.57785,1.7018 1.4986,1.7018 z m -0.75565,-2.032 c 0.0381,-0.508 0.3556,-0.7112 0.75565,-0.7112 0.33655,0 0.6477,0.2159 0.67945,0.7112 z"
         style="font-style:normal;font-variant:normal;font-weight:bold;font-stretch:normal;font-family:Overpass;-inkscape-font-specification:'Overpass Bold';text-align:center;text-anchor:middle;stroke-width:0.264583"
         id="path1011" />
      <path
         d="m 179.44734,27.224676 h 0.74295 v -1.8161 c 0,-0.61595 0.32385,-0.7747 0.6096,-0.7747 0.24765,0 0.4191,0.0762 0.55245,0.17145 l 0.10795,-0.67945 c -0.1651,-0.1397 -0.36195,-0.22225 -0.60325,-0.22225 -0.32385,0 -0.53975,0.14605 -0.66675,0.41275 v -0.33655 h -0.74295 z"
         style="font-style:normal;font-variant:normal;font-weight:bold;font-stretch:normal;font-family:Overpass;-inkscape-font-specification:'Overpass Bold';text-align:center;text-anchor:middle;stroke-width:0.264583"
         id="path1013" />
      <path
         d="m 137.52793,35.238376 c 0.79375,0 1.2827,-0.42545 1.55575,-1.0414 l -0.70485,-0.2667 c -0.2032,0.33655 -0.45085,0.5715 -0.8509,0.5715 -0.7493,0 -1.07315,-0.8255 -1.07315,-1.5621 0,-0.6985 0.254,-1.56845 1.07315,-1.56845 0.4191,0 0.64135,0.1905 0.8636,0.52705 l 0.6858,-0.31115 c -0.1905,-0.4699 -0.70485,-0.94615 -1.5494,-0.94615 -1.3716,0 -1.86055,1.27635 -1.86055,2.2987 0,1.09855 0.47625,2.2987 1.86055,2.2987 z"
         style="font-style:normal;font-variant:normal;font-weight:bold;font-stretch:normal;font-family:Overpass;-inkscape-font-specification:'Overpass Bold';text-align:center;text-anchor:middle;stroke-width:0.264583"
         id="path1015" />
      <path
         d="m 141.16647,35.238376 c 0.9144,0 1.49225,-0.62865 1.49225,-1.69545 0,-1.06045 -0.57785,-1.7018 -1.49225,-1.7018 -0.90805,0 -1.4859,0.64135 -1.4859,1.7018 0,1.0668 0.57785,1.69545 1.4859,1.69545 z m 0,-0.7112 c -0.45085,0 -0.74295,-0.3683 -0.74295,-0.98425 0,-0.61595 0.2921,-0.99695 0.74295,-0.99695 0.46355,0 0.7493,0.381 0.7493,0.99695 0,0.61595 -0.28575,0.98425 -0.7493,0.98425 z"
         style="font-style:normal;font-variant:normal;font-weight:bold;font-stretch:normal;font-family:Overpass;-inkscape-font-specification:'Overpass Bold';text-align:center;text-anchor:middle;stroke-width:0.264583"
         id="path1017" />
      <path
         d="m 145.45906,35.162176 h 0.74295 v -1.9939 c 0,-0.9906 -0.5334,-1.32715 -1.14935,-1.32715 -0.3683,0 -0.6477,0.127 -0.85725,0.381 v -0.3048 h -0.74295 v 3.24485 h 0.74295 v -1.87325 c 0,-0.5334 0.26035,-0.74295 0.6604,-0.74295 0.37465,0 0.60325,0.22225 0.60325,0.75565 z"
         style="font-style:normal;font-variant:normal;font-weight:bold;font-stretch:normal;font-family:Overpass;-inkscape-font-specification:'Overpass Bold';text-align:center;text-anchor:middle;stroke-width:0.264583"
         id="path1019" />
      <path
         d="m 148.07525,35.238376 c 0.2667,0 0.4953,-0.0508 0.67945,-0.14605 l 0.0889,-0.66675 c -0.17145,0.09525 -0.3429,0.14605 -0.508,0.14605 -0.19685,0 -0.27305,-0.127 -0.27305,-0.31115 v -1.69545 h 0.7493 v -0.6477 h -0.7493 v -1.33985 l -0.74295,0.3556 v 0.98425 h -0.4826 v 0.6477 h 0.4826 v 1.8415 c 0,0.51435 0.22225,0.83185 0.75565,0.83185 z"
         style="font-style:normal;font-variant:normal;font-weight:bold;font-stretch:normal;font-family:Overpass;-inkscape-font-specification:'Overpass Bold';text-align:center;text-anchor:middle;stroke-width:0.264583"
         id="path1021" />
      <path
         d="m 149.57385,35.162176 h 0.74295 v -1.8161 c 0,-0.61595 0.32385,-0.7747 0.6096,-0.7747 0.24765,0 0.4191,0.0762 0.55245,0.17145 l 0.10795,-0.67945 c -0.1651,-0.1397 -0.36195,-0.22225 -0.60325,-0.22225 -0.32385,0 -0.53975,0.14605 -0.66675,0.41275 v -0.33655 h -0.74295 z"
         style="font-style:normal;font-variant:normal;font-weight:bold;font-stretch:normal;font-family:Overpass;-inkscape-font-specification:'Overpass Bold';text-align:center;text-anchor:middle;stroke-width:0.264583"
         id="path1023" />
      <path
         d="m 153.44098,35.238376 c 0.9144,0 1.49225,-0.62865 1.49225,-1.69545 0,-1.06045 -0.57785,-1.7018 -1.49225,-1.7018 -0.90805,0 -1.4859,0.64135 -1.4859,1.7018 0,1.0668 0.57785,1.69545 1.4859,1.69545 z m 0,-0.7112 c -0.45085,0 -0.74295,-0.3683 -0.74295,-0.98425 0,-0.61595 0.2921,-0.99695 0.74295,-0.99695 0.46355,0 0.7493,0.381 0.7493,0.99695 0,0.61595 -0.28575,0.98425 -0.7493,0.98425 z"
         style="font-style:normal;font-variant:normal;font-weight:bold;font-stretch:normal;font-family:Overpass;-inkscape-font-specification:'Overpass Bold';text-align:center;text-anchor:middle;stroke-width:0.264583"
         id="path1025" />
      <path
         d="m 155.75872,35.162176 h 0.74295 v -4.5847 l -0.74295,0.34925 z"
         style="font-style:normal;font-variant:normal;font-weight:bold;font-stretch:normal;font-family:Overpass;-inkscape-font-specification:'Overpass Bold';text-align:center;text-anchor:middle;stroke-width:0.264583"
         id="path1027" />
      <path
         d="m 159.10516,35.162176 h 0.762 v -1.68275 h 1.08585 c 1.0668,0 1.49225,-0.7493 1.49225,-1.3843 0,-0.67945 -0.38735,-1.37795 -1.49225,-1.37795 h -1.84785 z m 1.88595,-2.40665 h -1.12395 v -1.31445 h 1.12395 c 0.5207,0 0.66675,0.37465 0.66675,0.65405 0,0.31115 -0.1778,0.6604 -0.66675,0.6604 z"
         style="font-style:normal;font-variant:normal;font-weight:bold;font-stretch:normal;font-family:Overpass;-inkscape-font-specification:'Overpass Bold';text-align:center;text-anchor:middle;stroke-width:0.264583"
         id="path1029" />
      <path
         d="m 163.112,35.162176 h 0.74295 v -4.5847 l -0.74295,0.34925 z"
         style="font-style:normal;font-variant:normal;font-weight:bold;font-stretch:normal;font-family:Overpass;-inkscape-font-specification:'Overpass Bold';text-align:center;text-anchor:middle;stroke-width:0.264583"
         id="path1031" />
      <path
         d="m 166.68705,35.162176 h 0.7239 v -2.08915 c 0,-1.0922 -0.7112,-1.2319 -1.2827,-1.2319 -0.5461,0 -0.9779,0.15875 -1.27,0.3556 l 0.2286,0.60325 c 0.27305,-0.1905 0.5715,-0.3048 0.9652,-0.3048 0.42545,0 0.635,0.1651 0.635,0.59055 v 0.17145 c -0.2032,-0.1143 -0.46355,-0.17145 -0.76835,-0.17145 -0.64135,0 -1.27,0.32385 -1.27,1.07315 0,0.7112 0.508,1.0795 1.17475,1.0795 0.4318,0 0.70485,-0.17145 0.8636,-0.33655 z m -0.7239,-0.57785 c -0.38735,0 -0.59055,-0.17145 -0.59055,-0.42545 0,-0.31115 0.29845,-0.43815 0.66675,-0.43815 0.2413,0 0.47625,0.0508 0.6477,0.13335 v 0.4191 c -0.1651,0.17145 -0.4064,0.31115 -0.7239,0.31115 z"
         style="font-style:normal;font-variant:normal;font-weight:bold;font-stretch:normal;font-family:Overpass;-inkscape-font-specification:'Overpass Bold';text-align:center;text-anchor:middle;stroke-width:0.264583"
         id="path1033" />
      <path
         d="m 170.30654,35.162176 h 0.74294 v -1.9939 c 0,-0.9906 -0.5334,-1.32715 -1.14934,-1.32715 -0.3683,0 -0.6477,0.127 -0.85725,0.381 v -0.3048 h -0.74295 v 3.24485 h 0.74295 v -1.87325 c 0,-0.5334 0.26035,-0.74295 0.6604,-0.74295 0.37465,0 0.60325,0.22225 0.60325,0.75565 z"
         style="font-style:normal;font-variant:normal;font-weight:bold;font-stretch:normal;font-family:Overpass;-inkscape-font-specification:'Overpass Bold';text-align:center;text-anchor:middle;stroke-width:0.264583"
         id="path1035" />
      <path
         d="m 173.31008,35.238376 c 0.5207,0 0.9017,-0.2032 1.1557,-0.508 l -0.4699,-0.4826 c -0.17145,0.2286 -0.40005,0.33655 -0.6858,0.33655 -0.38735,0 -0.7366,-0.28575 -0.762,-0.762 h 2.15265 c 0.019,-0.14605 0.0254,-0.32385 0.0254,-0.4572 0,-1.0414 -0.635,-1.524 -1.41605,-1.524 -0.90805,0 -1.4986,0.635 -1.4986,1.69545 0,1.0668 0.57785,1.7018 1.4986,1.7018 z m -0.75565,-2.032 c 0.0381,-0.508 0.3556,-0.7112 0.75565,-0.7112 0.33655,0 0.6477,0.2159 0.67945,0.7112 z"
         style="font-style:normal;font-variant:normal;font-weight:bold;font-stretch:normal;font-family:Overpass;-inkscape-font-specification:'Overpass Bold';text-align:center;text-anchor:middle;stroke-width:0.264583"
         id="path1037" />
    </g>
    <g
       aria-label="Container"
       id="text837-1-3"
       style="font-size:6.35px;line-height:1.25;font-family:'Overpass Mono';-inkscape-font-specification:'Overpass Mono';letter-spacing:0px;word-spacing:0px;fill:#4c4c4c;stroke-width:0.264583">
      <path
         d="m 128.81672,44.969347 c 0.78105,0 1.2446,-0.40005 1.4732,-0.89535 l -0.508,-0.1905 c -0.2032,0.33655 -0.47625,0.56515 -0.9652,0.56515 -0.889,0 -1.27,-0.89535 -1.27,-1.778 0,-0.8128 0.3175,-1.78435 1.27,-1.78435 0.48895,0 0.73025,0.2286 0.9398,0.53975 l 0.4953,-0.254 c -0.19685,-0.40005 -0.61595,-0.8001 -1.4351,-0.8001 -1.3208,0 -1.8415,1.1811 -1.8415,2.2987 0,1.1303 0.4953,2.2987 1.8415,2.2987 z"
         style="font-style:normal;font-variant:normal;font-weight:normal;font-stretch:normal;font-family:Overpass;-inkscape-font-specification:Overpass;fill:#4c4c4c;stroke-width:0.264583"
         id="path966" />
      <path
         d="m 132.42351,44.969347 c 0.86995,0 1.4351,-0.635 1.4351,-1.7018 0,-1.07315 -0.56515,-1.69545 -1.4351,-1.69545 -0.86995,0 -1.4351,0.635 -1.4351,1.7018 0,1.07315 0.56515,1.69545 1.4351,1.69545 z m 0,-0.51435 c -0.55245,0 -0.8763,-0.4445 -0.8763,-1.1811 0,-0.75565 0.32385,-1.1938 0.8763,-1.1938 0.55245,0 0.8763,0.45085 0.8763,1.18745 0,0.74295 -0.3302,1.18745 -0.8763,1.18745 z"
         style="font-style:normal;font-variant:normal;font-weight:normal;font-stretch:normal;font-family:Overpass;-inkscape-font-specification:Overpass;fill:#4c4c4c;stroke-width:0.264583"
         id="path968" />
      <path
         d="m 136.72246,44.893147 h 0.55245 v -1.8669 c 0,-1.04775 -0.42545,-1.45415 -1.16205,-1.45415 -0.34925,0 -0.635,0.127 -0.8382,0.4064 v -0.3302 h -0.55245 v 3.24485 h 0.55245 v -1.97485 c 0,-0.62865 0.32385,-0.8382 0.7493,-0.8382 0.40005,0 0.6985,0.23495 0.6985,0.8509 z"
         style="font-style:normal;font-variant:normal;font-weight:normal;font-stretch:normal;font-family:Overpass;-inkscape-font-specification:Overpass;fill:#4c4c4c;stroke-width:0.264583"
         id="path970" />
      <path
         d="m 139.17355,44.969347 c 0.254,0 0.45085,-0.05715 0.6223,-0.14605 l 0.0635,-0.53975 c -0.1397,0.0889 -0.29845,0.17145 -0.4826,0.17145 -0.28575,0 -0.33655,-0.19685 -0.33655,-0.4445 v -1.8796 h 0.8001 v -0.4826 h -0.8001 v -1.33985 l -0.55245,0.2667 v 1.07315 h -0.52705 v 0.4826 h 0.52705 v 2.06375 c 0,0.4572 0.19685,0.7747 0.6858,0.7747 z"
         style="font-style:normal;font-variant:normal;font-weight:normal;font-stretch:normal;font-family:Overpass;-inkscape-font-specification:Overpass;fill:#4c4c4c;stroke-width:0.264583"
         id="path972" />
      <path
         d="m 142.46919,44.893147 h 0.5207 v -2.15265 c 0,-0.99695 -0.6477,-1.1684 -1.1557,-1.1684 -0.48895,0 -0.9144,0.17145 -1.17475,0.3429 l 0.15875,0.46355 c 0.2413,-0.17145 0.5842,-0.32385 0.94615,-0.32385 0.4191,0 0.70485,0.15875 0.70485,0.73025 v 0.2286 c -0.2667,-0.1524 -0.55245,-0.20955 -0.8382,-0.20955 -0.62865,0 -1.21285,0.32385 -1.21285,1.07315 0,0.7239 0.4699,1.0922 1.1303,1.0922 0.38735,0 0.70485,-0.17145 0.92075,-0.37465 z m -0.8382,-0.41275 c -0.4445,0 -0.69215,-0.2413 -0.69215,-0.60325 0,-0.41275 0.34925,-0.5969 0.76835,-0.5969 0.2667,0 0.56515,0.09525 0.762,0.2159 v 0.5588 c -0.18415,0.2159 -0.47625,0.42545 -0.8382,0.42545 z"
         style="font-style:normal;font-variant:normal;font-weight:normal;font-stretch:normal;font-family:Overpass;-inkscape-font-specification:Overpass;fill:#4c4c4c;stroke-width:0.264583"
         id="path974" />
      <path
         d="m 144.22814,41.057747 c 0.19685,0 0.34925,-0.1524 0.34925,-0.3429 0,-0.19685 -0.1524,-0.3556 -0.34925,-0.3556 -0.1905,0 -0.3429,0.15875 -0.3429,0.3556 0,0.1905 0.1524,0.3429 0.3429,0.3429 z m -0.27305,3.8354 h 0.55245 v -3.24485 h -0.55245 z"
         style="font-style:normal;font-variant:normal;font-weight:normal;font-stretch:normal;font-family:Overpass;-inkscape-font-specification:Overpass;fill:#4c4c4c;stroke-width:0.264583"
         id="path976" />
      <path
         d="m 147.56189,44.893147 h 0.55245 v -1.8669 c 0,-1.04775 -0.42545,-1.45415 -1.16205,-1.45415 -0.34925,0 -0.635,0.127 -0.8382,0.4064 v -0.3302 h -0.55245 v 3.24485 h 0.55245 v -1.97485 c 0,-0.62865 0.32385,-0.8382 0.7493,-0.8382 0.40005,0 0.6985,0.23495 0.6985,0.8509 z"
         style="font-style:normal;font-variant:normal;font-weight:normal;font-stretch:normal;font-family:Overpass;-inkscape-font-specification:Overpass;fill:#4c4c4c;stroke-width:0.264583"
         id="path978" />
      <path
         d="m 150.38763,44.969347 c 0.43815,0 0.80645,-0.1778 1.04775,-0.4191 l -0.33655,-0.37465 c -0.2032,0.2032 -0.45085,0.2921 -0.6985,0.2921 -0.48895,0 -0.84455,-0.38735 -0.889,-0.98425 h 2.1971 c 0.0127,-0.127 0.0191,-0.2667 0.0191,-0.3683 0,-1.0668 -0.6096,-1.54305 -1.33985,-1.54305 -0.8636,0 -1.44145,0.6223 -1.44145,1.69545 0,0.9906 0.55245,1.7018 1.44145,1.7018 z m -0.88265,-1.9558 c 0.0318,-0.66675 0.41275,-0.9525 0.88265,-0.9525 0.3429,0 0.7747,0.2159 0.78105,0.9525 z"
         style="font-style:normal;font-variant:normal;font-weight:normal;font-stretch:normal;font-family:Overpass;-inkscape-font-specification:Overpass;fill:#4c4c4c;stroke-width:0.264583"
         id="path980" />
      <path
         d="m 152.55297,44.893147 h 0.55245 v -1.8288 c 0,-0.7366 0.41275,-0.94615 0.7239,-0.94615 0.22225,0 0.36195,0.06985 0.46355,0.1397 l 0.0825,-0.5207 c -0.1143,-0.09525 -0.2921,-0.1651 -0.50165,-0.1651 -0.36195,0 -0.6223,0.1778 -0.76835,0.50165 v -0.42545 h -0.55245 z"
         style="font-style:normal;font-variant:normal;font-weight:normal;font-stretch:normal;font-family:Overpass;-inkscape-font-specification:Overpass;fill:#4c4c4c;stroke-width:0.264583"
         id="path982" />
    </g>
    <g
       id="g921"
       transform="translate(1.0366686,4.235775)">
      <path
         style="fill:none;stroke:#000000;stroke-width:1.143;stroke-linecap:butt;stroke-linejoin:miter;stroke-miterlimit:4;stroke-dasharray:none;stroke-opacity:1"
         d="M 72.363684,27.071806 H 113.06365"
         id="path915"
         sodipodi:nodetypes="cc" />
      <path
         id="path917"
         style="fill:#000000;stroke:#000000;stroke-width:0.765"
         inkscape:transform-center-x="-0.46151622"
         d="m 115.4927,27.029261 -1.38455,0.799372 -1.38456,0.799372 0,-1.598744 0,-1.598744 1.38456,0.799372 z" />
    </g>
    <g
       aria-label="creates"
       id="text837-1-3-8"
       style="font-size:6.35px;line-height:1.25;font-family:'Overpass Mono';-inkscape-font-specification:'Overpass Mono';letter-spacing:0px;word-spacing:0px;fill:#4c4c4c;stroke-width:0.264583">
      <path
         d="m 90.431903,29.163347 c 0.5969,0 1.0287,-0.29845 1.18745,-0.83185 l -0.51435,-0.17145 c -0.09525,0.3048 -0.33655,0.4826 -0.6604,0.4826 -0.5207,0 -0.79375,-0.43815 -0.79375,-1.17475 0,-0.73025 0.26035,-1.18745 0.8128,-1.18745 0.3175,0 0.51435,0.18415 0.6096,0.4318 l 0.5207,-0.1905 c -0.18415,-0.508 -0.5969,-0.75565 -1.13665,-0.75565 -0.8509,0 -1.3716,0.635 -1.3716,1.7018 0,1.07315 0.5207,1.69545 1.3462,1.69545 z"
         style="font-style:normal;font-variant:normal;font-weight:normal;font-stretch:normal;font-family:Overpass;-inkscape-font-specification:Overpass;fill:#4c4c4c;stroke-width:0.264583"
         id="path950" />
      <path
         d="m 92.451191,29.087147 h 0.55245 v -1.8288 c 0,-0.7366 0.41275,-0.94615 0.7239,-0.94615 0.22225,0 0.36195,0.06985 0.46355,0.1397 l 0.08255,-0.5207 c -0.1143,-0.09525 -0.2921,-0.1651 -0.50165,-0.1651 -0.36195,0 -0.6223,0.1778 -0.76835,0.50165 v -0.42545 h -0.55245 z"
         style="font-style:normal;font-variant:normal;font-weight:normal;font-stretch:normal;font-family:Overpass;-inkscape-font-specification:Overpass;fill:#4c4c4c;stroke-width:0.264583"
         id="path952" />
      <path
         d="m 96.17229,29.163347 c 0.43815,0 0.80645,-0.1778 1.04775,-0.4191 l -0.33655,-0.37465 c -0.2032,0.2032 -0.45085,0.2921 -0.6985,0.2921 -0.48895,0 -0.84455,-0.38735 -0.889,-0.98425 h 2.1971 c 0.0127,-0.127 0.01905,-0.2667 0.01905,-0.3683 0,-1.0668 -0.6096,-1.54305 -1.33985,-1.54305 -0.8636,0 -1.44145,0.6223 -1.44145,1.69545 0,0.9906 0.55245,1.7018 1.44145,1.7018 z m -0.88265,-1.9558 c 0.03175,-0.66675 0.41275,-0.9525 0.88265,-0.9525 0.3429,0 0.7747,0.2159 0.78105,0.9525 z"
         style="font-style:normal;font-variant:normal;font-weight:normal;font-stretch:normal;font-family:Overpass;-inkscape-font-specification:Overpass;fill:#4c4c4c;stroke-width:0.264583"
         id="path954" />
      <path
         d="m 100.19818,29.087147 h 0.5207 v -2.15265 c 0,-0.99695 -0.6477,-1.1684 -1.155701,-1.1684 -0.48895,0 -0.9144,0.17145 -1.17475,0.3429 l 0.15875,0.46355 c 0.2413,-0.17145 0.5842,-0.32385 0.94615,-0.32385 0.4191,0 0.704851,0.15875 0.704851,0.73025 v 0.2286 c -0.266701,-0.1524 -0.552451,-0.20955 -0.838201,-0.20955 -0.62865,0 -1.21285,0.32385 -1.21285,1.07315 0,0.7239 0.4699,1.0922 1.1303,1.0922 0.38735,0 0.70485,-0.17145 0.920751,-0.37465 z m -0.838201,-0.41275 c -0.4445,0 -0.69215,-0.2413 -0.69215,-0.60325 0,-0.41275 0.34925,-0.5969 0.76835,-0.5969 0.2667,0 0.565151,0.09525 0.762001,0.2159 v 0.5588 c -0.18415,0.2159 -0.476251,0.42545 -0.838201,0.42545 z"
         style="font-style:normal;font-variant:normal;font-weight:normal;font-stretch:normal;font-family:Overpass;-inkscape-font-specification:Overpass;fill:#4c4c4c;stroke-width:0.264583"
         id="path956" />
      <path
         d="m 102.55402,29.163347 c 0.254,0 0.45085,-0.05715 0.6223,-0.14605 l 0.0635,-0.53975 c -0.1397,0.0889 -0.29845,0.17145 -0.4826,0.17145 -0.28575,0 -0.33655,-0.19685 -0.33655,-0.4445 v -1.8796 h 0.8001 v -0.4826 h -0.8001 v -1.33985 l -0.55245,0.2667 v 1.07315 h -0.52705 v 0.4826 h 0.52705 v 2.06375 c 0,0.4572 0.19685,0.7747 0.6858,0.7747 z"
         style="font-style:normal;font-variant:normal;font-weight:normal;font-stretch:normal;font-family:Overpass;-inkscape-font-specification:Overpass;fill:#4c4c4c;stroke-width:0.264583"
         id="path958" />
      <path
         d="m 105.24006,29.163347 c 0.43815,0 0.80645,-0.1778 1.04775,-0.4191 l -0.33655,-0.37465 c -0.2032,0.2032 -0.45085,0.2921 -0.6985,0.2921 -0.48895,0 -0.84455,-0.38735 -0.889,-0.98425 h 2.1971 c 0.0127,-0.127 0.019,-0.2667 0.019,-0.3683 0,-1.0668 -0.6096,-1.54305 -1.33985,-1.54305 -0.8636,0 -1.44145,0.6223 -1.44145,1.69545 0,0.9906 0.55245,1.7018 1.44145,1.7018 z m -0.88265,-1.9558 c 0.0318,-0.66675 0.41275,-0.9525 0.88265,-0.9525 0.3429,0 0.7747,0.2159 0.78105,0.9525 z"
         style="font-style:normal;font-variant:normal;font-weight:normal;font-stretch:normal;font-family:Overpass;-inkscape-font-specification:Overpass;fill:#4c4c4c;stroke-width:0.264583"
         id="path960" />
      <path
         d="m 108.36425,29.163347 c 0.70485,0 1.1557,-0.33655 1.1557,-0.92075 0,-0.61595 -0.46355,-0.86995 -1.0541,-1.0795 -0.36195,-0.14605 -0.6858,-0.2667 -0.6858,-0.53975 0,-0.2286 0.20955,-0.36195 0.53975,-0.36195 0.34925,0 0.57785,0.1651 0.71755,0.31115 l 0.381,-0.3175 c -0.23495,-0.2794 -0.5969,-0.48895 -1.0922,-0.48895 -0.6223,0 -1.0922,0.32385 -1.0922,0.85725 0,0.5334 0.4064,0.79375 1.0033,1.016 0.381,0.14605 0.74295,0.2921 0.74295,0.61595 0,0.28575 -0.26035,0.41275 -0.60325,0.41275 -0.34925,0 -0.62865,-0.20955 -0.79375,-0.38735 l -0.3937,0.33655 c 0.254,0.32385 0.6985,0.5461 1.17475,0.5461 z"
         style="font-style:normal;font-variant:normal;font-weight:normal;font-stretch:normal;font-family:Overpass;-inkscape-font-specification:Overpass;fill:#4c4c4c;stroke-width:0.264583"
         id="path962" />
    </g>
    <path
       id="rect839-9-0"
       style="fill:#ffffff;stroke:#f2b22d;stroke-width:0.770164"
       d="m 21.46804,42.899384 h 47.29361 c 2.172194,0 3.920927,1.748733 3.920927,3.920926 v 12.163306 c 0,2.172194 -1.748733,3.920927 -3.920927,3.920927 H 21.46804 c -2.172193,0 -3.920927,-1.748733 -3.920927,-3.920927 V 46.82031 c 0,-2.172193 1.748734,-3.920926 3.920927,-3.920926 z" />
    <g
       aria-label="Kubemark Cluster
Compute Node"
       id="text843-6-4"
       style="font-style:normal;font-variant:normal;font-weight:bold;font-stretch:normal;font-size:6.35px;line-height:1.25;font-family:Overpass;-inkscape-font-specification:'Overpass Bold';text-align:center;letter-spacing:0px;word-spacing:0px;text-anchor:middle;stroke-width:0.264583">
      <path
         d="m 21.792233,51.20015 h 0.889 l -1.5748,-2.8702 1.27,-1.5748 h -0.889 l -1.69545,2.1336 v -2.1336 h -0.762 v 4.445 h 0.762 v -1.2446 l 0.80645,-0.98425 z"
         style="font-style:normal;font-variant:normal;font-weight:bold;font-stretch:normal;font-family:Overpass;-inkscape-font-specification:'Overpass Bold';text-align:center;text-anchor:middle;stroke-width:0.264583"
         id="path895" />
      <path
         d="m 25.29108,51.20015 h 0.74295 V 47.9553 h -0.74295 v 1.8669 c 0,0.53975 -0.26035,0.74295 -0.65405,0.74295 -0.381,0 -0.6096,-0.22225 -0.6096,-0.75565 v -1.8542 h -0.74295 v 1.98755 c 0,0.9906 0.53975,1.3335 1.1557,1.3335 0.36195,0 0.6477,-0.127 0.8509,-0.38735 z"
         style="font-style:normal;font-variant:normal;font-weight:bold;font-stretch:normal;font-family:Overpass;-inkscape-font-specification:'Overpass Bold';text-align:center;text-anchor:middle;stroke-width:0.264583"
         id="path897" />
      <path
         d="m 28.447024,51.27635 c 0.8382,0 1.3589,-0.60325 1.3589,-1.7018 0,-1.06045 -0.5588,-1.69545 -1.3462,-1.69545 -0.33655,0 -0.5715,0.13335 -0.73025,0.3175 v -1.58115 l -0.74295,0.33655 v 4.24815 h 0.74295 V 50.9525 c 0.15875,0.19685 0.37465,0.32385 0.71755,0.32385 z m -0.0889,-0.7112 c -0.28575,0 -0.4953,-0.10795 -0.62865,-0.31115 v -1.35255 c 0.09525,-0.14605 0.3175,-0.3175 0.62865,-0.3175 0.45085,0 0.70485,0.34925 0.70485,0.9906 0,0.6096 -0.2413,0.9906 -0.70485,0.9906 z"
         style="font-style:normal;font-variant:normal;font-weight:bold;font-stretch:normal;font-family:Overpass;-inkscape-font-specification:'Overpass Bold';text-align:center;text-anchor:middle;stroke-width:0.264583"
         id="path899" />
      <path
         d="m 31.939514,51.27635 c 0.5207,0 0.9017,-0.2032 1.1557,-0.508 l -0.4699,-0.4826 c -0.17145,0.2286 -0.40005,0.33655 -0.6858,0.33655 -0.38735,0 -0.7366,-0.28575 -0.762,-0.762 h 2.15265 c 0.01905,-0.14605 0.0254,-0.32385 0.0254,-0.4572 0,-1.0414 -0.635,-1.524 -1.41605,-1.524 -0.90805,0 -1.4986,0.635 -1.4986,1.69545 0,1.0668 0.57785,1.7018 1.4986,1.7018 z m -0.75565,-2.032 c 0.0381,-0.508 0.3556,-0.7112 0.75565,-0.7112 0.33655,0 0.6477,0.2159 0.67945,0.7112 z"
         style="font-style:normal;font-variant:normal;font-weight:bold;font-stretch:normal;font-family:Overpass;-inkscape-font-specification:'Overpass Bold';text-align:center;text-anchor:middle;stroke-width:0.264583"
         id="path901" />
      <path
         d="m 37.927557,51.20015 h 0.74295 v -2.0701 c 0,-0.9144 -0.51435,-1.25095 -1.18745,-1.25095 -0.4191,0 -0.762,0.1397 -0.9779,0.4572 -0.17145,-0.31115 -0.46355,-0.4572 -0.8509,-0.4572 -0.33655,0 -0.6096,0.127 -0.79375,0.37465 V 47.9553 h -0.74295 v 3.24485 h 0.74295 V 49.3523 c 0,-0.5207 0.2413,-0.76835 0.6096,-0.76835 0.381,0 0.55245,0.24765 0.55245,0.75565 v 1.86055 h 0.74295 V 49.3523 c 0,-0.5207 0.23495,-0.76835 0.6096,-0.76835 0.381,0 0.55245,0.24765 0.55245,0.75565 z"
         style="font-style:normal;font-variant:normal;font-weight:bold;font-stretch:normal;font-family:Overpass;-inkscape-font-specification:'Overpass Bold';text-align:center;text-anchor:middle;stroke-width:0.264583"
         id="path903" />
      <path
         d="m 41.439105,51.20015 h 0.7239 V 49.111 c 0,-1.0922 -0.7112,-1.2319 -1.2827,-1.2319 -0.5461,0 -0.9779,0.15875 -1.27,0.3556 l 0.2286,0.60325 c 0.27305,-0.1905 0.5715,-0.3048 0.9652,-0.3048 0.42545,0 0.635,0.1651 0.635,0.59055 v 0.17145 c -0.2032,-0.1143 -0.46355,-0.17145 -0.76835,-0.17145 -0.64135,0 -1.27,0.32385 -1.27,1.07315 0,0.7112 0.508,1.0795 1.17475,1.0795 0.4318,0 0.70485,-0.17145 0.8636,-0.33655 z m -0.7239,-0.57785 c -0.38735,0 -0.59055,-0.17145 -0.59055,-0.42545 0,-0.31115 0.29845,-0.43815 0.66675,-0.43815 0.2413,0 0.47625,0.0508 0.6477,0.13335 v 0.4191 c -0.1651,0.17145 -0.4064,0.31115 -0.7239,0.31115 z"
         style="font-style:normal;font-variant:normal;font-weight:bold;font-stretch:normal;font-family:Overpass;-inkscape-font-specification:'Overpass Bold';text-align:center;text-anchor:middle;stroke-width:0.264583"
         id="path905" />
      <path
         d="m 43.051992,51.20015 h 0.74295 v -1.8161 c 0,-0.61595 0.32385,-0.7747 0.6096,-0.7747 0.24765,0 0.4191,0.0762 0.55245,0.17145 l 0.10795,-0.67945 c -0.1651,-0.1397 -0.36195,-0.22225 -0.60325,-0.22225 -0.32385,0 -0.53975,0.14605 -0.66675,0.41275 V 47.9553 h -0.74295 z"
         style="font-style:normal;font-variant:normal;font-weight:bold;font-stretch:normal;font-family:Overpass;-inkscape-font-specification:'Overpass Bold';text-align:center;text-anchor:middle;stroke-width:0.264583"
         id="path907" />
      <path
         d="m 48.45583,51.20015 -1.2065,-2.3241 0.92075,-0.92075 h -0.9017 l -0.9144,0.9398 v -2.27965 l -0.74295,0.34925 v 4.23545 h 0.74295 v -1.4351 l 0.36195,-0.3556 0.9271,1.7907 z"
         style="font-style:normal;font-variant:normal;font-weight:bold;font-stretch:normal;font-family:Overpass;-inkscape-font-specification:'Overpass Bold';text-align:center;text-anchor:middle;stroke-width:0.264583"
         id="path909" />
      <path
         d="m 52.475363,51.27635 c 0.79375,0 1.2827,-0.42545 1.55575,-1.0414 l -0.70485,-0.2667 c -0.2032,0.33655 -0.45085,0.5715 -0.8509,0.5715 -0.7493,0 -1.07315,-0.8255 -1.07315,-1.5621 0,-0.6985 0.254,-1.56845 1.07315,-1.56845 0.4191,0 0.64135,0.1905 0.8636,0.52705 l 0.6858,-0.31115 c -0.1905,-0.4699 -0.70485,-0.94615 -1.5494,-0.94615 -1.3716,0 -1.86055,1.27635 -1.86055,2.2987 0,1.09855 0.47625,2.2987 1.86055,2.2987 z"
         style="font-style:normal;font-variant:normal;font-weight:bold;font-stretch:normal;font-family:Overpass;-inkscape-font-specification:'Overpass Bold';text-align:center;text-anchor:middle;stroke-width:0.264583"
         id="path911" />
      <path
         d="m 54.837555,51.20015 h 0.74295 v -4.5847 l -0.74295,0.34925 z"
         style="font-style:normal;font-variant:normal;font-weight:bold;font-stretch:normal;font-family:Overpass;-inkscape-font-specification:'Overpass Bold';text-align:center;text-anchor:middle;stroke-width:0.264583"
         id="path913" />
      <path
         d="m 58.539596,51.20015 h 0.74295 V 47.9553 h -0.74295 v 1.8669 c 0,0.53975 -0.26035,0.74295 -0.65405,0.74295 -0.381,0 -0.6096,-0.22225 -0.6096,-0.75565 v -1.8542 h -0.74295 v 1.98755 c 0,0.9906 0.53975,1.3335 1.1557,1.3335 0.36195,0 0.6477,-0.127 0.8509,-0.38735 z"
         style="font-style:normal;font-variant:normal;font-weight:bold;font-stretch:normal;font-family:Overpass;-inkscape-font-specification:'Overpass Bold';text-align:center;text-anchor:middle;stroke-width:0.264583"
         id="path916" />
      <path
         d="m 61.276438,51.27635 c 0.7493,0 1.2446,-0.33655 1.2446,-0.9652 0,-0.61595 -0.43815,-0.88265 -1.0668,-1.0922 -0.3429,-0.1143 -0.635,-0.2286 -0.635,-0.42545 0,-0.17145 0.17145,-0.2667 0.43815,-0.2667 0.29845,0 0.48895,0.12065 0.6477,0.27305 l 0.51435,-0.4191 c -0.22225,-0.26035 -0.60325,-0.50165 -1.16205,-0.50165 -0.64135,0 -1.1557,0.3175 -1.1557,0.9017 0,0.5461 0.3683,0.81915 1.07315,1.0541 0.3683,0.14605 0.62865,0.24765 0.62865,0.47625 0,0.23495 -0.22225,0.3175 -0.52705,0.3175 -0.3556,0 -0.6223,-0.20955 -0.75565,-0.3429 l -0.508,0.4318 c 0.2413,0.3429 0.74295,0.5588 1.26365,0.5588 z"
         style="font-style:normal;font-variant:normal;font-weight:bold;font-stretch:normal;font-family:Overpass;-inkscape-font-specification:'Overpass Bold';text-align:center;text-anchor:middle;stroke-width:0.264583"
         id="path918" />
      <path
         d="m 64.235523,51.27635 c 0.2667,0 0.4953,-0.0508 0.67945,-0.14605 l 0.0889,-0.66675 c -0.17145,0.09525 -0.3429,0.14605 -0.508,0.14605 -0.19685,0 -0.27305,-0.127 -0.27305,-0.31115 V 48.603 h 0.7493 v -0.6477 h -0.7493 v -1.33985 l -0.74295,0.3556 v 0.98425 h -0.4826 v 0.6477 h 0.4826 v 1.8415 c 0,0.51435 0.22225,0.83185 0.75565,0.83185 z"
         style="font-style:normal;font-variant:normal;font-weight:bold;font-stretch:normal;font-family:Overpass;-inkscape-font-specification:'Overpass Bold';text-align:center;text-anchor:middle;stroke-width:0.264583"
         id="path920" />
      <path
         d="m 67.023165,51.27635 c 0.5207,0 0.9017,-0.2032 1.1557,-0.508 l -0.4699,-0.4826 c -0.17145,0.2286 -0.40005,0.33655 -0.6858,0.33655 -0.38735,0 -0.7366,-0.28575 -0.762,-0.762 h 2.15265 c 0.01905,-0.14605 0.0254,-0.32385 0.0254,-0.4572 0,-1.0414 -0.635,-1.524 -1.41605,-1.524 -0.90805,0 -1.4986,0.635 -1.4986,1.69545 0,1.0668 0.57785,1.7018 1.4986,1.7018 z m -0.75565,-2.032 c 0.0381,-0.508 0.3556,-0.7112 0.75565,-0.7112 0.33655,0 0.6477,0.2159 0.67945,0.7112 z"
         style="font-style:normal;font-variant:normal;font-weight:bold;font-stretch:normal;font-family:Overpass;-inkscape-font-specification:'Overpass Bold';text-align:center;text-anchor:middle;stroke-width:0.264583"
         id="path922" />
      <path
         d="m 69.201206,51.20015 h 0.74295 v -1.8161 c 0,-0.61595 0.32385,-0.7747 0.6096,-0.7747 0.24765,0 0.4191,0.0762 0.55245,0.17145 l 0.10795,-0.67945 c -0.1651,-0.1397 -0.36195,-0.22225 -0.60325,-0.22225 -0.32385,0 -0.53975,0.14605 -0.66675,0.41275 V 47.9553 h -0.74295 z"
         style="font-style:normal;font-variant:normal;font-weight:bold;font-stretch:normal;font-family:Overpass;-inkscape-font-specification:'Overpass Bold';text-align:center;text-anchor:middle;stroke-width:0.264583"
         id="path924" />
      <path
         d="m 25.545068,59.213849 c 0.79375,0 1.2827,-0.42545 1.55575,-1.0414 l -0.70485,-0.2667 c -0.2032,0.33655 -0.45085,0.5715 -0.8509,0.5715 -0.7493,0 -1.07315,-0.8255 -1.07315,-1.5621 0,-0.6985 0.254,-1.56845 1.07315,-1.56845 0.4191,0 0.64135,0.1905 0.8636,0.52705 l 0.6858,-0.31115 c -0.1905,-0.4699 -0.70485,-0.94615 -1.5494,-0.94615 -1.3716,0 -1.86055,1.27635 -1.86055,2.2987 0,1.09855 0.47625,2.2987 1.86055,2.2987 z"
         style="font-style:normal;font-variant:normal;font-weight:bold;font-stretch:normal;font-family:Overpass;-inkscape-font-specification:'Overpass Bold';text-align:center;text-anchor:middle;stroke-width:0.264583"
         id="path926" />
      <path
         d="m 29.183607,59.213849 c 0.9144,0 1.49225,-0.62865 1.49225,-1.69545 0,-1.06045 -0.57785,-1.7018 -1.49225,-1.7018 -0.90805,0 -1.4859,0.64135 -1.4859,1.7018 0,1.0668 0.57785,1.69545 1.4859,1.69545 z m 0,-0.7112 c -0.45085,0 -0.74295,-0.3683 -0.74295,-0.98425 0,-0.61595 0.2921,-0.99695 0.74295,-0.99695 0.46355,0 0.7493,0.381 0.7493,0.99695 0,0.61595 -0.28575,0.98425 -0.7493,0.98425 z"
         style="font-style:normal;font-variant:normal;font-weight:bold;font-stretch:normal;font-family:Overpass;-inkscape-font-specification:'Overpass Bold';text-align:center;text-anchor:middle;stroke-width:0.264583"
         id="path928" />
      <path
         d="m 35.279596,59.137649 h 0.74295 v -2.0701 c 0,-0.9144 -0.51435,-1.25095 -1.18745,-1.25095 -0.4191,0 -0.762,0.1397 -0.9779,0.4572 -0.17145,-0.31115 -0.46355,-0.4572 -0.8509,-0.4572 -0.33655,0 -0.6096,0.127 -0.79375,0.37465 v -0.29845 h -0.74295 v 3.24485 h 0.74295 v -1.84785 c 0,-0.5207 0.2413,-0.76835 0.6096,-0.76835 0.381,0 0.55245,0.24765 0.55245,0.75565 v 1.86055 h 0.74295 v -1.84785 c 0,-0.5207 0.23495,-0.76835 0.6096,-0.76835 0.381,0 0.55245,0.24765 0.55245,0.75565 z"
         style="font-style:normal;font-variant:normal;font-weight:bold;font-stretch:normal;font-family:Overpass;-inkscape-font-specification:'Overpass Bold';text-align:center;text-anchor:middle;stroke-width:0.264583"
         id="path930" />
      <path
         d="m 38.422843,59.213849 c 0.7874,0 1.33985,-0.62865 1.33985,-1.69545 0,-1.08585 -0.52705,-1.7018 -1.3335,-1.7018 -0.34925,0 -0.5842,0.13335 -0.74295,0.32385 v -0.24765 h -0.74295 v 4.5212 l 0.74295,-0.3429 v -1.1938 c 0.1524,0.1905 0.38735,0.33655 0.7366,0.33655 z m -0.10795,-0.7112 c -0.29845,0 -0.51435,-0.1524 -0.62865,-0.3175 v -1.3462 c 0.13335,-0.19685 0.33655,-0.3175 0.62865,-0.3175 0.4572,0 0.70485,0.4064 0.70485,0.99695 0,0.635 -0.254,0.98425 -0.70485,0.98425 z"
         style="font-style:normal;font-variant:normal;font-weight:bold;font-stretch:normal;font-family:Overpass;-inkscape-font-specification:'Overpass Bold';text-align:center;text-anchor:middle;stroke-width:0.264583"
         id="path932" />
      <path
         d="m 42.531282,59.137649 h 0.74295 v -3.24485 h -0.74295 v 1.8669 c 0,0.53975 -0.26035,0.74295 -0.65405,0.74295 -0.381,0 -0.6096,-0.22225 -0.6096,-0.75565 v -1.8542 h -0.74295 v 1.98755 c 0,0.9906 0.53975,1.3335 1.1557,1.3335 0.36195,0 0.6477,-0.127 0.8509,-0.38735 z"
         style="font-style:normal;font-variant:normal;font-weight:bold;font-stretch:normal;font-family:Overpass;-inkscape-font-specification:'Overpass Bold';text-align:center;text-anchor:middle;stroke-width:0.264583"
         id="path934" />
      <path
         d="m 45.179226,59.213849 c 0.2667,0 0.4953,-0.0508 0.67945,-0.14605 l 0.0889,-0.66675 c -0.17145,0.09525 -0.3429,0.14605 -0.508,0.14605 -0.19685,0 -0.27305,-0.127 -0.27305,-0.31115 v -1.69545 h 0.7493 v -0.6477 h -0.7493 v -1.33985 l -0.74295,0.3556 v 0.98425 h -0.4826 v 0.6477 h 0.4826 v 1.8415 c 0,0.51435 0.22225,0.83185 0.75565,0.83185 z"
         style="font-style:normal;font-variant:normal;font-weight:bold;font-stretch:normal;font-family:Overpass;-inkscape-font-specification:'Overpass Bold';text-align:center;text-anchor:middle;stroke-width:0.264583"
         id="path936" />
      <path
         d="m 47.966866,59.213849 c 0.5207,0 0.9017,-0.2032 1.1557,-0.508 l -0.4699,-0.4826 c -0.17145,0.2286 -0.40005,0.33655 -0.6858,0.33655 -0.38735,0 -0.7366,-0.28575 -0.762,-0.762 h 2.15265 c 0.01905,-0.14605 0.0254,-0.32385 0.0254,-0.4572 0,-1.0414 -0.635,-1.524 -1.41605,-1.524 -0.90805,0 -1.4986,0.635 -1.4986,1.69545 0,1.0668 0.57785,1.7018 1.4986,1.7018 z m -0.75565,-2.032 c 0.0381,-0.508 0.3556,-0.7112 0.75565,-0.7112 0.33655,0 0.6477,0.2159 0.67945,0.7112 z"
         style="font-style:normal;font-variant:normal;font-weight:bold;font-stretch:normal;font-family:Overpass;-inkscape-font-specification:'Overpass Bold';text-align:center;text-anchor:middle;stroke-width:0.264583"
         id="path938" />
      <path
         d="m 55.218553,59.137649 v -4.445 h -0.75565 v 2.76225 c 0,0.09525 0.0064,0.22225 0.01905,0.33655 -0.05715,-0.1143 -0.12065,-0.2413 -0.18415,-0.33655 l -1.79705,-2.76225 h -0.7366 v 4.445 h 0.75565 v -2.8067 c 0,-0.1016 -0.0064,-0.2286 -0.01905,-0.3302 0.05715,0.1143 0.127,0.2413 0.18415,0.3302 l 1.8415,2.8067 z"
         style="font-style:normal;font-variant:normal;font-weight:bold;font-stretch:normal;font-family:Overpass;-inkscape-font-specification:'Overpass Bold';text-align:center;text-anchor:middle;stroke-width:0.264583"
         id="path940" />
      <path
         d="m 57.561694,59.213849 c 0.9144,0 1.49225,-0.62865 1.49225,-1.69545 0,-1.06045 -0.57785,-1.7018 -1.49225,-1.7018 -0.90805,0 -1.4859,0.64135 -1.4859,1.7018 0,1.0668 0.57785,1.69545 1.4859,1.69545 z m 0,-0.7112 c -0.45085,0 -0.74295,-0.3683 -0.74295,-0.98425 0,-0.61595 0.2921,-0.99695 0.74295,-0.99695 0.46355,0 0.7493,0.381 0.7493,0.99695 0,0.61595 -0.28575,0.98425 -0.7493,0.98425 z"
         style="font-style:normal;font-variant:normal;font-weight:bold;font-stretch:normal;font-family:Overpass;-inkscape-font-specification:'Overpass Bold';text-align:center;text-anchor:middle;stroke-width:0.264583"
         id="path942" />
      <path
         d="m 61.035134,59.213849 c 0.3429,0 0.57785,-0.1143 0.73025,-0.31115 v 0.23495 h 0.74295 v -4.5847 l -0.74295,0.33655 v 1.2319 c -0.1524,-0.1778 -0.38735,-0.3048 -0.73025,-0.3048 -0.78105,0 -1.3462,0.635 -1.3462,1.69545 0,1.0795 0.52705,1.7018 1.3462,1.7018 z m 0.1143,-0.7112 c -0.4572,0 -0.71755,-0.40005 -0.71755,-0.9906 0,-0.64135 0.26035,-0.9906 0.71755,-0.9906 0.31115,0 0.5207,0.17145 0.61595,0.31115 v 1.3589 c -0.13335,0.2032 -0.33655,0.31115 -0.61595,0.31115 z"
         style="font-style:normal;font-variant:normal;font-weight:bold;font-stretch:normal;font-family:Overpass;-inkscape-font-specification:'Overpass Bold';text-align:center;text-anchor:middle;stroke-width:0.264583"
         id="path944" />
      <path
         d="m 64.800675,59.213849 c 0.5207,0 0.9017,-0.2032 1.1557,-0.508 l -0.4699,-0.4826 c -0.17145,0.2286 -0.40005,0.33655 -0.6858,0.33655 -0.38735,0 -0.7366,-0.28575 -0.762,-0.762 h 2.15265 c 0.01905,-0.14605 0.0254,-0.32385 0.0254,-0.4572 0,-1.0414 -0.635,-1.524 -1.41605,-1.524 -0.90805,0 -1.4986,0.635 -1.4986,1.69545 0,1.0668 0.57785,1.7018 1.4986,1.7018 z m -0.75565,-2.032 c 0.0381,-0.508 0.3556,-0.7112 0.75565,-0.7112 0.33655,0 0.6477,0.2159 0.67945,0.7112 z"
         style="font-style:normal;font-variant:normal;font-weight:bold;font-stretch:normal;font-family:Overpass;-inkscape-font-specification:'Overpass Bold';text-align:center;text-anchor:middle;stroke-width:0.264583"
         id="path946" />
    </g>
    <g
       aria-label="Pod"
       id="text837-1-3-89"
       style="font-size:6.35px;line-height:1.25;font-family:'Overpass Mono';-inkscape-font-specification:'Overpass Mono';letter-spacing:0px;word-spacing:0px;fill:#4c4c4c;stroke-width:0.264583">
      <path
         d="m 21.244746,69.435577 h 0.55245 v -1.78435 h 1.14935 c 1.0414,0 1.4351,-0.71755 1.4351,-1.32715 0,-0.6604 -0.3556,-1.3335 -1.4351,-1.3335 h -1.7018 z m 1.7399,-2.2987 h -1.18745 v -1.63195 h 1.18745 c 0.66675,0 0.84455,0.4699 0.84455,0.81915 0,0.381 -0.2159,0.8128 -0.84455,0.8128 z"
         style="font-style:normal;font-variant:normal;font-weight:normal;font-stretch:normal;font-family:Overpass;-inkscape-font-specification:Overpass;fill:#4c4c4c;stroke-width:0.264583"
         id="path888" />
      <path
         d="m 26.204086,69.511777 c 0.86995,0 1.4351,-0.635 1.4351,-1.7018 0,-1.07315 -0.56515,-1.69545 -1.4351,-1.69545 -0.86995,0 -1.4351,0.635 -1.4351,1.7018 0,1.07315 0.56515,1.69545 1.4351,1.69545 z m 0,-0.51435 c -0.55245,0 -0.8763,-0.4445 -0.8763,-1.1811 0,-0.75565 0.32385,-1.1938 0.8763,-1.1938 0.55245,0 0.8763,0.45085 0.8763,1.18745 0,0.74295 -0.3302,1.18745 -0.8763,1.18745 z"
         style="font-style:normal;font-variant:normal;font-weight:normal;font-stretch:normal;font-family:Overpass;-inkscape-font-specification:Overpass;fill:#4c4c4c;stroke-width:0.264583"
         id="path890" />
      <path
         d="m 29.652128,69.511777 c 0.38735,0 0.635,-0.1397 0.81915,-0.3302 v 0.254 h 0.55245 v -4.5847 l -0.55245,0.26035 v 1.3081 c -0.18415,-0.1651 -0.43815,-0.3048 -0.81915,-0.3048 -0.80645,0 -1.33985,0.62865 -1.33985,1.69545 0,1.04775 0.51435,1.7018 1.33985,1.7018 z m 0.0762,-0.51435 c -0.5334,0 -0.85725,-0.51435 -0.85725,-1.18745 0,-0.762 0.31115,-1.18745 0.85725,-1.18745 0.37465,0 0.6223,0.22225 0.74295,0.41275 v 1.524 c -0.1651,0.2794 -0.43815,0.43815 -0.74295,0.43815 z"
         style="font-style:normal;font-variant:normal;font-weight:normal;font-stretch:normal;font-family:Overpass;-inkscape-font-specification:Overpass;fill:#4c4c4c;stroke-width:0.264583"
         id="path892" />
    </g>
    <g
       id="g1067">
      <path
         style="fill:none;stroke:#000000;stroke-width:1.143;stroke-linecap:butt;stroke-linejoin:miter;stroke-miterlimit:4;stroke-dasharray:none;stroke-opacity:1"
         d="M 69.332835,55.315763 116.68563,43.207312"
         id="path915-6"
         sodipodi:nodetypes="cc" />
      <path
         id="path917-4"
         style="fill:#000000;stroke:#000000;stroke-width:0.765"
         inkscape:transform-center-x="-0.80699641"
         inkscape:transform-center-y="-0.037732511"
         transform="rotate(-16.146348,171.7892,22.284954)"
         d="m 115.4927,27.029261 -1.38455,0.799372 -1.38456,0.799372 0,-1.598744 0,-1.598744 1.38456,0.799372 z" />
    </g>
    <g
       aria-label="joins"
       transform="rotate(-13.154994)"
       id="text837-1-3-8-3"
       style="font-size:6.35px;line-height:1.25;font-family:'Overpass Mono';-inkscape-font-specification:'Overpass Mono';letter-spacing:0px;word-spacing:0px;fill:#4c4c4c;stroke-width:0.264583">
      <path
         d="m 73.997836,62.467594 c 0.19685,0 0.3429,-0.1524 0.3429,-0.3429 0,-0.19685 -0.14605,-0.3556 -0.3429,-0.3556 -0.19685,0 -0.34925,0.15875 -0.34925,0.3556 0,0.1905 0.1524,0.3429 0.34925,0.3429 z m -0.8509,5.1943 c 0.31115,-0.04445 0.635,-0.1524 0.88265,-0.4572 0.18415,-0.2159 0.2413,-0.52705 0.2413,-0.8763 v -3.27025 h -0.55245 v 3.47345 c 0,0.38735 -0.18415,0.6096 -0.83185,0.7112 z"
         style="font-style:normal;font-variant:normal;font-weight:normal;font-stretch:normal;font-family:Overpass;-inkscape-font-specification:Overpass;fill:#4c4c4c;stroke-width:0.264583"
         id="path876" />
      <path
         d="m 76.569584,66.379194 c 0.86995,0 1.4351,-0.635 1.4351,-1.7018 0,-1.07315 -0.56515,-1.69545 -1.4351,-1.69545 -0.86995,0 -1.4351,0.635 -1.4351,1.7018 0,1.07315 0.56515,1.69545 1.4351,1.69545 z m 0,-0.51435 c -0.55245,0 -0.8763,-0.4445 -0.8763,-1.1811 0,-0.75565 0.32385,-1.1938 0.8763,-1.1938 0.55245,0 0.8763,0.45085 0.8763,1.18745 0,0.74295 -0.3302,1.18745 -0.8763,1.18745 z"
         style="font-style:normal;font-variant:normal;font-weight:normal;font-stretch:normal;font-family:Overpass;-inkscape-font-specification:Overpass;fill:#4c4c4c;stroke-width:0.264583"
         id="path878" />
      <path
         d="m 79.147675,62.467594 c 0.19685,0 0.34925,-0.1524 0.34925,-0.3429 0,-0.19685 -0.1524,-0.3556 -0.34925,-0.3556 -0.1905,0 -0.3429,0.15875 -0.3429,0.3556 0,0.1905 0.1524,0.3429 0.3429,0.3429 z m -0.27305,3.8354 h 0.55245 v -3.24485 h -0.55245 z"
         style="font-style:normal;font-variant:normal;font-weight:normal;font-stretch:normal;font-family:Overpass;-inkscape-font-specification:Overpass;fill:#4c4c4c;stroke-width:0.264583"
         id="path880" />
      <path
         d="m 82.481423,66.302994 h 0.55245 v -1.8669 c 0,-1.04775 -0.42545,-1.45415 -1.16205,-1.45415 -0.34925,0 -0.635,0.127 -0.8382,0.4064 v -0.3302 h -0.55245 v 3.24485 h 0.55245 v -1.97485 c 0,-0.62865 0.32385,-0.8382 0.7493,-0.8382 0.40005,0 0.6985,0.23495 0.6985,0.8509 z"
         style="font-style:normal;font-variant:normal;font-weight:normal;font-stretch:normal;font-family:Overpass;-inkscape-font-specification:Overpass;fill:#4c4c4c;stroke-width:0.264583"
         id="path882" />
      <path
         d="m 85.015071,66.379194 c 0.70485,0 1.1557,-0.33655 1.1557,-0.92075 0,-0.61595 -0.46355,-0.86995 -1.0541,-1.0795 -0.36195,-0.14605 -0.6858,-0.2667 -0.6858,-0.53975 0,-0.2286 0.20955,-0.36195 0.53975,-0.36195 0.34925,0 0.57785,0.1651 0.71755,0.31115 l 0.381,-0.3175 c -0.23495,-0.2794 -0.5969,-0.48895 -1.0922,-0.48895 -0.6223,0 -1.0922,0.32385 -1.0922,0.85725 0,0.5334 0.4064,0.79375 1.0033,1.016 0.381,0.14605 0.74295,0.2921 0.74295,0.61595 0,0.28575 -0.26035,0.41275 -0.60325,0.41275 -0.34925,0 -0.62865,-0.20955 -0.79375,-0.38735 l -0.3937,0.33655 c 0.254,0.32385 0.6985,0.5461 1.17475,0.5461 z"
         style="font-style:normal;font-variant:normal;font-weight:normal;font-stretch:normal;font-family:Overpass;-inkscape-font-specification:Overpass;fill:#4c4c4c;stroke-width:0.264583"
         id="path884" />
    </g>
  </g>
</svg>
