<?xml version="1.0" encoding="UTF-8" standalone="no"?>
<!-- Created with Inkscape (http://www.inkscape.org/) -->

<svg
   xmlns:dc="http://purl.org/dc/elements/1.1/"
   xmlns:cc="http://creativecommons.org/ns#"
   xmlns:rdf="http://www.w3.org/1999/02/22-rdf-syntax-ns#"
   xmlns:svg="http://www.w3.org/2000/svg"
   xmlns="http://www.w3.org/2000/svg"
   xmlns:sodipodi="http://sodipodi.sourceforge.net/DTD/sodipodi-0.dtd"
   xmlns:inkscape="http://www.inkscape.org/namespaces/inkscape"
   width="457.28152mm"
   height="92.800423mm"
   viewBox="0 0 457.28152 92.800423"
   version="1.1"
   id="svg8"
   inkscape:version="0.92.3 (2405546, 2018-03-11)"
   sodipodi:docname="deswag-1.svg">
  <defs
     id="defs2">
    <inkscape:perspective
       sodipodi:type="inkscape:persp3d"
       inkscape:vp_x="0 : 148.49999 : 1"
       inkscape:vp_y="0 : 999.99996 : 0"
       inkscape:vp_z="210 : 148.49999 : 1"
       inkscape:persp3d-origin="104.99999 : 98.999996 : 1"
       id="perspective990" />
  </defs>
  <sodipodi:namedview
     id="base"
     pagecolor="#ffffff"
     bordercolor="#666666"
     borderopacity="1.0"
     inkscape:pageopacity="0.0"
     inkscape:pageshadow="2"
     inkscape:zoom="0.49497475"
     inkscape:cx="1118.1684"
     inkscape:cy="23.736612"
     inkscape:document-units="mm"
     inkscape:current-layer="layer1"
     showgrid="false"
     inkscape:window-width="1912"
     inkscape:window-height="1052"
     inkscape:window-x="4"
     inkscape:window-y="4"
     inkscape:window-maximized="1"
     fit-margin-top="0"
     fit-margin-left="0"
     fit-margin-right="0"
     fit-margin-bottom="0" />
  <metadata
     id="metadata5">
    <rdf:RDF>
      <cc:Work
         rdf:about="">
        <dc:format>image/svg+xml</dc:format>
        <dc:type
           rdf:resource="http://purl.org/dc/dcmitype/StillImage" />
        <dc:title></dc:title>
      </cc:Work>
    </rdf:RDF>
  </metadata>
  <g
     inkscape:label="Layer 1"
     inkscape:groupmode="layer"
     id="layer1"
     transform="translate(-22.675088,-88.634456)">
    <g
       id="g1074"
       transform="translate(-7.6428685e-7,-77.322174)">
      <path
         id="rect10-3"
         d="m 40.967969,168.03913 -16.21038,16.20986 v 72.42556 h 68.41339 v -88.63542 z"
         style="opacity:1;vector-effect:none;fill:none;fill-opacity:1;stroke:#4c4c4c;stroke-width:4.16499996;stroke-linecap:round;stroke-linejoin:miter;stroke-miterlimit:4;stroke-dasharray:none;stroke-dashoffset:0;stroke-opacity:1"
         inkscape:connector-curvature="0" />
      <g
         id="text851-6"
         style="font-style:normal;font-variant:normal;font-weight:900;font-stretch:normal;font-size:11.28888893px;line-height:1.25;font-family:Overpass;-inkscape-font-specification:'Overpass Heavy';letter-spacing:0px;word-spacing:0px;fill:#000000;fill-opacity:1;stroke:none;stroke-width:0.26458332"
         aria-label="OpenAPI">
        <path
           inkscape:connector-curvature="0"
           id="path1050"
           style="font-style:normal;font-variant:normal;font-weight:900;font-stretch:normal;font-size:11.28888893px;font-family:Overpass;-inkscape-font-specification:'Overpass Heavy';stroke-width:0.26458332"
           d="m 39.707907,215.38791 c 2.551289,0 3.499555,-2.1336 3.499555,-4.08658 0,-1.95298 -0.948266,-4.08658 -3.499555,-4.08658 -2.562578,0 -3.510845,2.1336 -3.510845,4.08658 0,1.95298 0.948267,4.08658 3.510845,4.08658 z m 0,-1.65947 c -1.298222,0 -1.7272,-1.33209 -1.7272,-2.42711 0,-1.06116 0.417689,-2.4384 1.7272,-2.4384 1.298222,0 1.715911,1.3208 1.715911,2.4384 0,1.04987 -0.462844,2.42711 -1.715911,2.42711 z" />
        <path
           inkscape:connector-curvature="0"
           id="path1052"
           style="font-style:normal;font-variant:normal;font-weight:900;font-stretch:normal;font-size:11.28888893px;font-family:Overpass;-inkscape-font-specification:'Overpass Heavy';stroke-width:0.26458332"
           d="m 47.392289,215.38791 c 1.354667,0 2.404533,-1.1176 2.404533,-3.01414 0,-1.98684 -0.982133,-3.02542 -2.381955,-3.02542 -0.530578,0 -0.925689,0.2032 -1.162756,0.53058 v -0.39511 h -1.636889 v 8.01511 l 1.636889,-0.73378 v -1.88524 c 0.248356,0.31609 0.620889,0.508 1.140178,0.508 z m -0.259644,-1.58045 c -0.485423,0 -0.801512,-0.19191 -0.880534,-0.37253 v -2.15618 c 0.191911,-0.2032 0.428978,-0.34995 0.880534,-0.34995 0.699911,0 1.027288,0.55315 1.027288,1.44497 0,0.90312 -0.372533,1.43369 -1.027288,1.43369 z" />
        <path
           inkscape:connector-curvature="0"
           id="path1054"
           style="font-style:normal;font-variant:normal;font-weight:900;font-stretch:normal;font-size:11.28888893px;font-family:Overpass;-inkscape-font-specification:'Overpass Heavy';stroke-width:0.26458332"
           d="m 53.668734,215.38791 c 0.993422,0 1.715911,-0.4064 2.246489,-1.04987 l -0.948267,-0.94827 c -0.361244,0.42898 -0.722489,0.6096 -1.298222,0.6096 -0.6096,0 -1.106311,-0.3048 -1.140178,-1.07244 h 3.691467 c 0.04516,-0.29351 0.04516,-0.63218 0.04516,-0.84667 0,-1.85137 -1.140178,-2.73191 -2.596445,-2.73191 -1.682044,0 -2.7432,1.16276 -2.7432,3.01414 0,1.89653 1.038578,3.02542 2.7432,3.02542 z m -1.128889,-3.69147 c 0.07902,-0.6096 0.485422,-0.95955 1.061156,-0.95955 0.677333,0 1.016,0.34995 1.095022,0.95955 z" />
        <path
           inkscape:connector-curvature="0"
           id="path1056"
           style="font-style:normal;font-variant:normal;font-weight:900;font-stretch:normal;font-size:11.28888893px;font-family:Overpass;-inkscape-font-specification:'Overpass Heavy';stroke-width:0.26458332"
           d="m 61.191193,215.25244 h 1.636888 v -3.74791 c 0,-1.68204 -1.1176,-2.15618 -1.998133,-2.15618 -0.699911,0 -1.2192,0.24836 -1.569155,0.66605 v -0.53058 h -1.636889 v 5.76862 h 1.636889 v -3.02542 c 0,-0.86925 0.293511,-1.29822 1.016,-1.29822 0.677333,0 0.9144,0.4064 0.9144,1.3208 z" />
        <path
           inkscape:connector-curvature="0"
           id="path1058"
           style="font-style:normal;font-variant:normal;font-weight:900;font-stretch:normal;font-size:11.28888893px;font-family:Overpass;-inkscape-font-specification:'Overpass Heavy';stroke-width:0.26458332"
           d="m 69.843771,215.25244 h 1.873956 l -3.127022,-7.90222 h -1.648178 l -3.115733,7.90222 h 1.873955 l 0.587022,-1.53529 h 2.968978 z m -1.162755,-3.11573 h -1.8288 l 0.677333,-1.70462 c 0.07902,-0.19192 0.191911,-0.46285 0.237067,-0.66605 0.05644,0.2032 0.158044,0.47413 0.237066,0.66605 z" />
        <path
           inkscape:connector-curvature="0"
           id="path1060"
           style="font-style:normal;font-variant:normal;font-weight:900;font-stretch:normal;font-size:11.28888893px;font-family:Overpass;-inkscape-font-specification:'Overpass Heavy';stroke-width:0.26458332"
           d="m 72.705153,215.25244 h 1.715911 v -2.83351 h 1.783644 c 1.964267,0 2.754489,-1.35467 2.754489,-2.52871 0,-1.26436 -0.722489,-2.54 -2.754489,-2.54 h -3.499555 z m 3.567289,-4.44782 h -1.851378 v -1.8288 h 1.851378 c 0.688622,0 0.903111,0.51929 0.903111,0.9144 0,0.42898 -0.248356,0.9144 -0.903111,0.9144 z" />
        <path
           inkscape:connector-curvature="0"
           id="path1062"
           style="font-style:normal;font-variant:normal;font-weight:900;font-stretch:normal;font-size:11.28888893px;font-family:Overpass;-inkscape-font-specification:'Overpass Heavy';stroke-width:0.26458332"
           d="m 80.015591,215.25244 h 1.715911 v -7.90222 h -1.715911 z" />
      </g>
    </g>
    <path
       style="opacity:1;vector-effect:none;fill:none;fill-opacity:1;stroke:#004153;stroke-width:3.84614849;stroke-linecap:round;stroke-linejoin:miter;stroke-miterlimit:4;stroke-dasharray:none;stroke-dashoffset:0;stroke-opacity:1"
       d="m 309.25933,102.9022 v 12.88163 H 135.79398 v 38.5022 h 173.46535 v 12.88116 l 27.82766,-16.06601 27.82764,-16.06649 -27.82764,-16.06601 z"
       id="rect988"
       inkscape:connector-curvature="0" />
    <g
       id="g1117"
       transform="translate(-36.883185,2.1381562)">
      <g
         id="g1091">
        <path
           inkscape:connector-curvature="0"
           style="opacity:1;vector-effect:none;fill:none;fill-opacity:1;stroke:#4c4c4c;stroke-width:4.16499996;stroke-linecap:round;stroke-linejoin:miter;stroke-miterlimit:4;stroke-dasharray:none;stroke-dashoffset:0;stroke-opacity:1"
           d="m 462.5543,88.5788 -16.21038,16.20986 v 72.42556 h 68.41339 V 88.5788 Z"
           id="rect10-5" />
        <g
           aria-label="Code"
           style="font-style:normal;font-variant:normal;font-weight:900;font-stretch:normal;font-size:11.28888893px;line-height:1.25;font-family:Overpass;-inkscape-font-specification:'Overpass Heavy';letter-spacing:0px;word-spacing:0px;fill:#000000;fill-opacity:1;stroke:none;stroke-width:0.26458332"
           id="text851-62">
          <path
             d="m 471.14583,137.01696 c 1.45626,0 2.34809,-0.85796 2.91253,-2.07716 l -1.56916,-0.58702 c -0.36124,0.59831 -0.76764,1.016 -1.34337,1.016 -1.08374,0 -1.54658,-1.29822 -1.54658,-2.41582 0,-1.08374 0.37253,-2.41583 1.54658,-2.41583 0.62089,0 0.97084,0.33867 1.36595,0.93698 l 1.53529,-0.68862 c -0.38382,-0.95956 -1.37724,-1.89653 -2.90124,-1.89653 -2.46098,0 -3.33023,2.26906 -3.33023,4.064 0,1.95297 0.84667,4.064 3.33023,4.064 z"
             style="font-style:normal;font-variant:normal;font-weight:900;font-stretch:normal;font-size:11.28888893px;font-family:Overpass;-inkscape-font-specification:'Overpass Heavy';stroke-width:0.26458332"
             id="path1030"
             inkscape:connector-curvature="0" />
          <path
             d="m 477.56868,137.03953 c 1.6256,0 2.65288,-1.1176 2.65288,-3.01413 0,-1.86267 -1.02728,-3.02542 -2.65288,-3.02542 -1.63689,0 -2.67547,1.16275 -2.67547,3.02542 0,1.89653 1.03858,3.01413 2.67547,3.01413 z m 0,-1.58044 c -0.63218,0 -1.03858,-0.53058 -1.03858,-1.43369 0,-0.90311 0.4064,-1.44498 1.03858,-1.44498 0.64346,0 1.016,0.54187 1.016,1.44498 0,0.90311 -0.37254,1.43369 -1.016,1.43369 z"
             style="font-style:normal;font-variant:normal;font-weight:900;font-stretch:normal;font-size:11.28888893px;font-family:Overpass;-inkscape-font-specification:'Overpass Heavy';stroke-width:0.26458332"
             id="path1032"
             inkscape:connector-curvature="0" />
          <path
             d="m 483.72412,137.03953 c 0.56444,0 0.95955,-0.2032 1.17404,-0.6096 v 0.47414 h 1.63689 v -8.15058 l -1.63689,0.73378 v 2.08844 c -0.23706,-0.33866 -0.6096,-0.57573 -1.15146,-0.57573 -1.35467,0 -2.39325,1.16275 -2.39325,3.01413 0,1.98685 0.93698,3.02542 2.37067,3.02542 z m 0.28222,-1.58044 c -0.69991,0 -1.016,-0.51929 -1.016,-1.44498 0,-0.92569 0.37253,-1.43369 1.016,-1.43369 0.46284,0 0.75636,0.21449 0.89182,0.38383 v 2.1336 c -0.18062,0.24835 -0.41769,0.36124 -0.89182,0.36124 z"
             style="font-style:normal;font-variant:normal;font-weight:900;font-stretch:normal;font-size:11.28888893px;font-family:Overpass;-inkscape-font-specification:'Overpass Heavy';stroke-width:0.26458332"
             id="path1034"
             inkscape:connector-curvature="0" />
          <path
             d="m 490.68919,137.03953 c 0.99342,0 1.71591,-0.4064 2.24649,-1.04986 l -0.94827,-0.94827 c -0.36125,0.42898 -0.72249,0.6096 -1.29822,0.6096 -0.6096,0 -1.10631,-0.3048 -1.14018,-1.07244 h 3.69147 c 0.0452,-0.29351 0.0452,-0.63218 0.0452,-0.84667 0,-1.85138 -1.14018,-2.73191 -2.59644,-2.73191 -1.68205,0 -2.7432,1.16275 -2.7432,3.01413 0,1.89654 1.03857,3.02542 2.7432,3.02542 z m -1.12889,-3.69146 c 0.079,-0.6096 0.48542,-0.95956 1.06115,-0.95956 0.67734,0 1.016,0.34996 1.09503,0.95956 z"
             style="font-style:normal;font-variant:normal;font-weight:900;font-stretch:normal;font-size:11.28888893px;font-family:Overpass;-inkscape-font-specification:'Overpass Heavy';stroke-width:0.26458332"
             id="path1036"
             inkscape:connector-curvature="0" />
        </g>
      </g>
    </g>
    <g
       aria-label="code generator"
       style="font-style:normal;font-variant:normal;font-weight:900;font-stretch:normal;font-size:11.28888893px;line-height:1.25;font-family:Overpass;-inkscape-font-specification:'Overpass Heavy';letter-spacing:0px;word-spacing:0px;fill:#000000;fill-opacity:1;stroke:none;stroke-width:0.26458332"
       id="text1159"
       transform="translate(5.3141057,4.5352812)">
      <path
         d="m 192.71377,133.58125 c 1.30951,0 2.15618,-0.64346 2.54,-1.95298 l -1.56916,-0.45155 c -0.16933,0.54187 -0.49671,0.83538 -0.97084,0.83538 -0.58702,0 -1.03858,-0.57574 -1.03858,-1.44498 0,-0.85796 0.45156,-1.45627 1.06116,-1.45627 0.45155,0 0.77893,0.3048 0.94826,0.74507 l 1.55787,-0.508 c -0.39511,-1.25307 -1.29822,-1.80622 -2.52871,-1.80622 -1.61431,0 -2.69805,1.16275 -2.69805,3.02542 0,1.89653 1.08374,3.01413 2.69805,3.01413 z"
         style="font-style:normal;font-variant:normal;font-weight:900;font-stretch:normal;font-size:11.28888893px;font-family:Overpass;-inkscape-font-specification:'Overpass Heavy';stroke-width:0.26458332"
         id="path1180"
         inkscape:connector-curvature="0" />
      <path
         d="m 198.97504,133.58125 c 1.6256,0 2.65289,-1.1176 2.65289,-3.01413 0,-1.86267 -1.02729,-3.02542 -2.65289,-3.02542 -1.63689,0 -2.67546,1.16275 -2.67546,3.02542 0,1.89653 1.03857,3.01413 2.67546,3.01413 z m 0,-1.58044 c -0.63217,0 -1.03857,-0.53058 -1.03857,-1.43369 0,-0.90311 0.4064,-1.44498 1.03857,-1.44498 0.64347,0 1.016,0.54187 1.016,1.44498 0,0.90311 -0.37253,1.43369 -1.016,1.43369 z"
         style="font-style:normal;font-variant:normal;font-weight:900;font-stretch:normal;font-size:11.28888893px;font-family:Overpass;-inkscape-font-specification:'Overpass Heavy';stroke-width:0.26458332"
         id="path1182"
         inkscape:connector-curvature="0" />
      <path
         d="m 205.13049,133.58125 c 0.56444,0 0.95955,-0.2032 1.17404,-0.6096 v 0.47414 h 1.63689 v -8.15058 l -1.63689,0.73378 v 2.08844 c -0.23707,-0.33867 -0.6096,-0.57573 -1.15147,-0.57573 -1.35466,0 -2.39324,1.16275 -2.39324,3.01413 0,1.98684 0.93698,3.02542 2.37067,3.02542 z m 0.28222,-1.58044 c -0.69991,0 -1.016,-0.51929 -1.016,-1.44498 0,-0.92569 0.37253,-1.43369 1.016,-1.43369 0.46284,0 0.75635,0.21449 0.89182,0.38382 v 2.1336 c -0.18062,0.24836 -0.41769,0.36125 -0.89182,0.36125 z"
         style="font-style:normal;font-variant:normal;font-weight:900;font-stretch:normal;font-size:11.28888893px;font-family:Overpass;-inkscape-font-specification:'Overpass Heavy';stroke-width:0.26458332"
         id="path1184"
         inkscape:connector-curvature="0" />
      <path
         d="m 212.09555,133.58125 c 0.99343,0 1.71592,-0.4064 2.24649,-1.04986 l -0.94826,-0.94827 c -0.36125,0.42898 -0.72249,0.6096 -1.29823,0.6096 -0.6096,0 -1.10631,-0.3048 -1.14017,-1.07245 h 3.69146 c 0.0452,-0.29351 0.0452,-0.63217 0.0452,-0.84666 0,-1.85138 -1.14018,-2.73191 -2.59645,-2.73191 -1.68204,0 -2.7432,1.16275 -2.7432,3.01413 0,1.89653 1.03858,3.02542 2.7432,3.02542 z m -1.12888,-3.69146 c 0.079,-0.6096 0.48542,-0.95956 1.06115,-0.95956 0.67733,0 1.016,0.34996 1.09502,0.95956 z"
         style="font-style:normal;font-variant:normal;font-weight:900;font-stretch:normal;font-size:11.28888893px;font-family:Overpass;-inkscape-font-specification:'Overpass Heavy';stroke-width:0.26458332"
         id="path1186"
         inkscape:connector-curvature="0" />
      <path
         d="m 222.22363,127.67716 v 0.24836 c -0.33867,-0.31609 -0.7112,-0.38382 -1.15147,-0.38382 -1.41111,0 -2.39324,1.16275 -2.39324,3.01413 0,2.00942 0.98213,3.02542 2.39324,3.02542 0.36125,0 0.80151,-0.0339 1.15147,-0.36124 -0.0113,0.88053 -0.56445,0.95955 -2.02071,1.08373 l 0.93698,1.39982 c 2.40453,-0.19191 2.72062,-1.18533 2.72062,-3.26249 v -4.76391 z m 0,3.97369 c -0.2032,0.23707 -0.41769,0.34996 -0.90311,0.34996 -0.73378,0 -1.00471,-0.62089 -1.00471,-1.44498 0,-0.92569 0.37253,-1.43369 1.00471,-1.43369 0.59831,0 0.75635,0.24836 0.90311,0.37253 z"
         style="font-style:normal;font-variant:normal;font-weight:900;font-stretch:normal;font-size:11.28888893px;font-family:Overpass;-inkscape-font-specification:'Overpass Heavy';stroke-width:0.26458332"
         id="path1188"
         inkscape:connector-curvature="0" />
      <path
         d="m 228.01465,133.58125 c 0.99343,0 1.71591,-0.4064 2.24649,-1.04986 l -0.94826,-0.94827 c -0.36125,0.42898 -0.72249,0.6096 -1.29823,0.6096 -0.6096,0 -1.10631,-0.3048 -1.14017,-1.07245 h 3.69146 c 0.0452,-0.29351 0.0452,-0.63217 0.0452,-0.84666 0,-1.85138 -1.14018,-2.73191 -2.59645,-2.73191 -1.68204,0 -2.7432,1.16275 -2.7432,3.01413 0,1.89653 1.03858,3.02542 2.7432,3.02542 z m -1.12889,-3.69146 c 0.079,-0.6096 0.48543,-0.95956 1.06116,-0.95956 0.67733,0 1.016,0.34996 1.09502,0.95956 z"
         style="font-style:normal;font-variant:normal;font-weight:900;font-stretch:normal;font-size:11.28888893px;font-family:Overpass;-inkscape-font-specification:'Overpass Heavy';stroke-width:0.26458332"
         id="path1190"
         inkscape:connector-curvature="0" />
      <path
         d="m 235.53711,133.44579 h 1.63689 v -3.74792 c 0,-1.68204 -1.1176,-2.15617 -1.99814,-2.15617 -0.69991,0 -1.2192,0.24835 -1.56915,0.66604 v -0.53058 h -1.63689 v 5.76863 h 1.63689 v -3.02543 c 0,-0.86924 0.29351,-1.29822 1.016,-1.29822 0.67733,0 0.9144,0.4064 0.9144,1.3208 z"
         style="font-style:normal;font-variant:normal;font-weight:900;font-stretch:normal;font-size:11.28888893px;font-family:Overpass;-inkscape-font-specification:'Overpass Heavy';stroke-width:0.26458332"
         id="path1192"
         inkscape:connector-curvature="0" />
      <path
         d="m 241.26587,133.58125 c 0.99342,0 1.71591,-0.4064 2.24648,-1.04986 l -0.94826,-0.94827 c -0.36125,0.42898 -0.72249,0.6096 -1.29822,0.6096 -0.6096,0 -1.10632,-0.3048 -1.14018,-1.07245 h 3.69146 c 0.0452,-0.29351 0.0452,-0.63217 0.0452,-0.84666 0,-1.85138 -1.14018,-2.73191 -2.59644,-2.73191 -1.68205,0 -2.7432,1.16275 -2.7432,3.01413 0,1.89653 1.03857,3.02542 2.7432,3.02542 z m -1.12889,-3.69146 c 0.079,-0.6096 0.48542,-0.95956 1.06115,-0.95956 0.67734,0 1.016,0.34996 1.09502,0.95956 z"
         style="font-style:normal;font-variant:normal;font-weight:900;font-stretch:normal;font-size:11.28888893px;font-family:Overpass;-inkscape-font-specification:'Overpass Heavy';stroke-width:0.26458332"
         id="path1194"
         inkscape:connector-curvature="0" />
      <path
         d="m 245.22103,133.44579 h 1.63689 v -3.12703 c 0,-0.92569 0.47414,-1.19662 0.99342,-1.19662 0.47414,0 0.76765,0.18062 1.02729,0.39511 l 0.21449,-1.49013 c -0.28222,-0.29351 -0.64346,-0.48542 -1.14018,-0.48542 -0.59831,0 -0.98213,0.42897 -1.09502,0.65475 v -0.51929 h -1.63689 z"
         style="font-style:normal;font-variant:normal;font-weight:900;font-stretch:normal;font-size:11.28888893px;font-family:Overpass;-inkscape-font-specification:'Overpass Heavy';stroke-width:0.26458332"
         id="path1196"
         inkscape:connector-curvature="0" />
      <path
         d="m 253.29012,133.44579 h 1.6256 v -3.64632 c 0,-1.98684 -1.37724,-2.25777 -2.44969,-2.25777 -1.016,0 -1.87395,0.31609 -2.47226,0.72249 l 0.508,1.25306 c 0.6096,-0.4064 1.20791,-0.6096 1.85137,-0.6096 0.56445,0 0.93698,0.27094 0.93698,0.8128 v 0.31609 c -0.32738,-0.14675 -0.69991,-0.2032 -1.26435,-0.2032 -1.14018,0 -2.3368,0.58702 -2.3368,1.85138 0,1.26435 0.94826,1.89653 2.16746,1.89653 0.74507,0 1.15147,-0.25964 1.43369,-0.56444 z m -1.1176,-1.24178 c -0.56444,0 -0.88053,-0.19191 -0.88053,-0.508 0,-0.41769 0.45155,-0.55316 1.016,-0.55316 0.36124,0 0.67733,0.0452 0.98213,0.13547 v 0.51929 c -0.27093,0.21449 -0.62089,0.4064 -1.1176,0.4064 z"
         style="font-style:normal;font-variant:normal;font-weight:900;font-stretch:normal;font-size:11.28888893px;font-family:Overpass;-inkscape-font-specification:'Overpass Heavy';stroke-width:0.26458332"
         id="path1198"
         inkscape:connector-curvature="0" />
      <path
         d="m 258.22637,133.58125 c 0.508,0 0.93698,-0.079 1.30951,-0.25964 l 0.18062,-1.37725 c -0.34995,0.15805 -0.67733,0.22578 -0.99342,0.22578 -0.15805,0 -0.32738,-0.1016 -0.32738,-0.32738 v -2.73191 h 1.25307 v -1.43369 h -1.25307 v -2.38195 l -1.6256,0.77893 v 1.60302 h -0.79022 v 1.43369 h 0.79022 v 2.88996 c 0,1.016 0.42898,1.58044 1.45627,1.58044 z"
         style="font-style:normal;font-variant:normal;font-weight:900;font-stretch:normal;font-size:11.28888893px;font-family:Overpass;-inkscape-font-specification:'Overpass Heavy';stroke-width:0.26458332"
         id="path1200"
         inkscape:connector-curvature="0" />
      <path
         d="m 263.35699,133.58125 c 1.6256,0 2.65289,-1.1176 2.65289,-3.01413 0,-1.86267 -1.02729,-3.02542 -2.65289,-3.02542 -1.63689,0 -2.67546,1.16275 -2.67546,3.02542 0,1.89653 1.03857,3.01413 2.67546,3.01413 z m 0,-1.58044 c -0.63218,0 -1.03858,-0.53058 -1.03858,-1.43369 0,-0.90311 0.4064,-1.44498 1.03858,-1.44498 0.64347,0 1.016,0.54187 1.016,1.44498 0,0.90311 -0.37253,1.43369 -1.016,1.43369 z"
         style="font-style:normal;font-variant:normal;font-weight:900;font-stretch:normal;font-size:11.28888893px;font-family:Overpass;-inkscape-font-specification:'Overpass Heavy';stroke-width:0.26458332"
         id="path1202"
         inkscape:connector-curvature="0" />
      <path
         d="m 267.42399,133.44579 h 1.63689 v -3.12703 c 0,-0.92569 0.47413,-1.19662 0.99342,-1.19662 0.47414,0 0.76765,0.18062 1.02729,0.39511 l 0.21449,-1.49013 c -0.28222,-0.29351 -0.64347,-0.48542 -1.14018,-0.48542 -0.59831,0 -0.98213,0.42897 -1.09502,0.65475 v -0.51929 h -1.63689 z"
         style="font-style:normal;font-variant:normal;font-weight:900;font-stretch:normal;font-size:11.28888893px;font-family:Overpass;-inkscape-font-specification:'Overpass Heavy';stroke-width:0.26458332"
         id="path1204"
         inkscape:connector-curvature="0" />
    </g>
  </g>
</svg>
